<svg xmlns="http://www.w3.org/2000/svg" xmlns:xlink="http://www.w3.org/1999/xlink" width="500" zoomAndPan="magnify" viewBox="0 0 375 374.999991" height="500" preserveAspectRatio="xMidYMid meet" version="1.0"><defs><clipPath id="8a29f5ea43"><path d="M 43 82.132812 L 332.414062 82.132812 L 332.414062 292.882812 L 43 292.882812 Z M 43 82.132812 " clip-rule="nonzero"/></clipPath></defs><g clip-path="url(#8a29f5ea43)"><path fill="#0049a7" d="M 269.738281 167.792969 C 267.691406 167.792969 265.652344 167.894531 263.613281 168.09375 C 261.578125 168.296875 259.558594 168.597656 257.550781 168.996094 C 255.542969 169.394531 253.5625 169.890625 251.605469 170.484375 C 249.644531 171.082031 247.722656 171.769531 245.832031 172.550781 C 243.941406 173.335938 242.09375 174.210938 240.289062 175.175781 C 238.484375 176.140625 236.734375 177.191406 235.03125 178.328125 C 233.332031 179.464844 231.691406 180.679688 230.109375 181.980469 C 228.527344 183.277344 227.011719 184.648438 225.566406 186.097656 C 224.121094 187.542969 222.746094 189.058594 221.449219 190.640625 C 220.152344 192.222656 218.933594 193.863281 217.796875 195.5625 C 216.664062 197.265625 215.613281 199.019531 214.648438 200.824219 C 213.683594 202.628906 212.808594 204.476562 212.027344 206.367188 C 211.246094 208.253906 210.554688 210.179688 209.960938 212.136719 C 209.367188 214.097656 208.871094 216.078125 208.472656 218.085938 C 208.074219 220.089844 207.773438 222.113281 207.574219 224.148438 C 207.375 226.183594 207.273438 228.226562 207.273438 230.273438 C 207.273438 232.320312 207.375 234.359375 207.578125 236.394531 C 207.777344 238.433594 208.078125 240.453125 208.476562 242.460938 C 208.875 244.464844 209.375 246.449219 209.96875 248.40625 C 210.5625 250.363281 211.25 252.289062 212.035156 254.179688 C 212.816406 256.070312 213.691406 257.914062 214.65625 259.71875 C 215.621094 261.523438 216.671875 263.277344 217.808594 264.976562 C 218.945312 266.679688 220.164062 268.320312 221.460938 269.902344 C 222.757812 271.484375 224.132812 272.996094 225.578125 274.445312 C 227.023438 275.890625 228.539062 277.261719 230.121094 278.558594 C 231.703125 279.859375 233.34375 281.074219 235.046875 282.210938 C 236.746094 283.347656 238.5 284.398438 240.304688 285.363281 C 242.109375 286.328125 243.957031 287.199219 245.847656 287.984375 C 247.738281 288.765625 249.660156 289.453125 251.621094 290.046875 C 253.578125 290.640625 255.558594 291.136719 257.566406 291.535156 C 259.574219 291.933594 261.59375 292.234375 263.628906 292.433594 C 265.667969 292.636719 267.707031 292.734375 269.753906 292.734375 L 269.773438 292.734375 C 271.816406 292.734375 273.859375 292.632812 275.894531 292.433594 C 277.929688 292.230469 279.953125 291.929688 281.957031 291.53125 C 283.964844 291.132812 285.949219 290.632812 287.90625 290.039062 C 289.863281 289.445312 291.785156 288.757812 293.675781 287.972656 C 295.566406 287.191406 297.414062 286.316406 299.21875 285.351562 C 301.023438 284.386719 302.773438 283.335938 304.476562 282.195312 C 306.175781 281.058594 307.816406 279.84375 309.398438 278.542969 C 310.980469 277.246094 312.492188 275.871094 313.941406 274.425781 C 315.386719 272.976562 316.757812 271.464844 318.054688 269.882812 C 319.355469 268.300781 320.570312 266.660156 321.707031 264.957031 C 322.84375 263.253906 323.894531 261.503906 324.855469 259.699219 C 325.820312 257.894531 326.695312 256.046875 327.476562 254.15625 C 328.257812 252.265625 328.945312 250.339844 329.539062 248.382812 C 330.132812 246.425781 330.628906 244.441406 331.027344 242.433594 C 331.425781 240.429688 331.726562 238.40625 331.925781 236.371094 C 332.125 234.335938 332.226562 232.292969 332.226562 230.246094 C 332.226562 228.199219 332.125 226.160156 331.921875 224.125 C 331.722656 222.089844 331.421875 220.066406 331.023438 218.058594 C 330.621094 216.054688 330.125 214.070312 329.53125 212.113281 C 328.9375 210.15625 328.246094 208.230469 327.464844 206.34375 C 326.679688 204.453125 325.804688 202.605469 324.839844 200.800781 C 323.875 198.996094 322.824219 197.242188 321.6875 195.542969 C 320.550781 193.84375 319.332031 192.203125 318.035156 190.621094 C 316.734375 189.039062 315.363281 187.523438 313.914062 186.078125 C 312.46875 184.632812 310.953125 183.261719 309.371094 181.964844 C 307.789062 180.664062 306.148438 179.449219 304.445312 178.3125 C 302.746094 177.175781 300.992188 176.125 299.1875 175.160156 C 297.382812 174.199219 295.535156 173.324219 293.644531 172.542969 C 291.753906 171.761719 289.832031 171.070312 287.871094 170.480469 C 285.914062 169.886719 283.933594 169.390625 281.925781 168.992188 C 279.917969 168.59375 277.898438 168.292969 275.859375 168.09375 C 273.824219 167.894531 271.785156 167.792969 269.738281 167.792969 Z M 269.769531 284.828125 L 269.769531 288.78125 L 269.753906 284.828125 C 268.5625 284.828125 267.371094 284.789062 266.183594 284.710938 C 264.996094 284.632812 263.8125 284.519531 262.632812 284.363281 C 261.453125 284.207031 260.28125 284.011719 259.113281 283.78125 C 257.945312 283.546875 256.785156 283.277344 255.636719 282.96875 C 254.488281 282.660156 253.347656 282.316406 252.222656 281.933594 C 251.09375 281.550781 249.980469 281.132812 248.882812 280.675781 C 247.78125 280.21875 246.699219 279.730469 245.628906 279.203125 C 244.5625 278.675781 243.511719 278.113281 242.484375 277.519531 C 241.453125 276.925781 240.441406 276.296875 239.453125 275.632812 C 238.460938 274.972656 237.496094 274.28125 236.550781 273.554688 C 235.605469 272.832031 234.6875 272.074219 233.792969 271.289062 C 232.898438 270.503906 232.03125 269.691406 231.1875 268.851562 C 230.347656 268.007812 229.53125 267.140625 228.75 266.246094 C 227.964844 265.351562 227.207031 264.429688 226.484375 263.488281 C 225.761719 262.542969 225.066406 261.574219 224.40625 260.585938 C 223.746094 259.59375 223.117188 258.585938 222.519531 257.554688 C 221.925781 256.523438 221.367188 255.472656 220.839844 254.40625 C 220.3125 253.339844 219.820312 252.253906 219.367188 251.15625 C 218.910156 250.054688 218.492188 248.941406 218.109375 247.816406 C 217.726562 246.6875 217.382812 245.550781 217.074219 244.398438 C 216.765625 243.25 216.496094 242.089844 216.261719 240.921875 C 216.03125 239.757812 215.835938 238.582031 215.683594 237.402344 C 215.527344 236.222656 215.410156 235.039062 215.332031 233.851562 C 215.253906 232.664062 215.214844 231.472656 215.214844 230.285156 C 215.214844 229.09375 215.253906 227.902344 215.332031 226.714844 C 215.410156 225.527344 215.527344 224.34375 215.683594 223.164062 C 215.839844 221.984375 216.03125 220.808594 216.265625 219.644531 C 216.496094 218.476562 216.765625 217.316406 217.074219 216.167969 C 217.382812 215.019531 217.730469 213.878906 218.113281 212.753906 C 218.496094 211.625 218.914062 210.511719 219.371094 209.410156 C 219.824219 208.3125 220.316406 207.230469 220.84375 206.160156 C 221.367188 205.09375 221.929688 204.042969 222.523438 203.011719 C 223.121094 201.984375 223.75 200.972656 224.410156 199.984375 C 225.070312 198.992188 225.765625 198.027344 226.488281 197.082031 C 227.214844 196.136719 227.96875 195.21875 228.753906 194.324219 C 229.539062 193.429688 230.351562 192.558594 231.191406 191.71875 C 232.035156 190.875 232.902344 190.0625 233.796875 189.277344 C 234.691406 188.492188 235.613281 187.738281 236.558594 187.015625 C 237.5 186.289062 238.46875 185.597656 239.457031 184.933594 C 240.449219 184.273438 241.457031 183.644531 242.488281 183.050781 C 243.519531 182.457031 244.570312 181.894531 245.636719 181.367188 C 246.703125 180.84375 247.789062 180.351562 248.886719 179.894531 C 249.988281 179.441406 251.101562 179.019531 252.226562 178.636719 C 253.355469 178.253906 254.492188 177.910156 255.644531 177.601562 C 256.792969 177.292969 257.953125 177.023438 259.117188 176.792969 C 260.285156 176.558594 261.460938 176.367188 262.640625 176.210938 C 263.820312 176.054688 265.003906 175.9375 266.191406 175.859375 C 267.378906 175.78125 268.570312 175.742188 269.757812 175.742188 C 270.949219 175.742188 272.136719 175.78125 273.328125 175.859375 C 274.515625 175.9375 275.699219 176.054688 276.878906 176.210938 C 278.058594 176.367188 279.230469 176.558594 280.398438 176.792969 C 281.566406 177.023438 282.726562 177.292969 283.875 177.601562 C 285.023438 177.910156 286.164062 178.253906 287.289062 178.636719 C 288.417969 179.019531 289.53125 179.441406 290.632812 179.894531 C 291.730469 180.351562 292.8125 180.84375 293.882812 181.367188 C 294.949219 181.894531 296 182.457031 297.03125 183.050781 C 298.058594 183.644531 299.070312 184.273438 300.058594 184.933594 C 301.050781 185.597656 302.015625 186.289062 302.960938 187.015625 C 303.90625 187.738281 304.824219 188.492188 305.71875 189.277344 C 306.617188 190.0625 307.484375 190.875 308.324219 191.71875 C 309.167969 192.558594 309.980469 193.429688 310.765625 194.324219 C 311.550781 195.21875 312.304688 196.136719 313.03125 197.082031 C 313.753906 198.027344 314.449219 198.992188 315.109375 199.984375 C 315.769531 200.972656 316.398438 201.984375 316.992188 203.011719 C 317.589844 204.042969 318.148438 205.09375 318.675781 206.160156 C 319.203125 207.230469 319.695312 208.3125 320.148438 209.410156 C 320.605469 210.511719 321.023438 211.625 321.40625 212.753906 C 321.789062 213.878906 322.132812 215.019531 322.441406 216.167969 C 322.75 217.316406 323.019531 218.476562 323.253906 219.644531 C 323.484375 220.808594 323.679688 221.984375 323.835938 223.164062 C 323.992188 224.34375 324.105469 225.527344 324.183594 226.714844 C 324.261719 227.902344 324.300781 229.09375 324.300781 230.285156 C 324.300781 231.472656 324.261719 232.664062 324.183594 233.851562 C 324.109375 235.039062 323.992188 236.222656 323.835938 237.402344 C 323.679688 238.582031 323.488281 239.757812 323.253906 240.921875 C 323.023438 242.089844 322.753906 243.25 322.445312 244.398438 C 322.136719 245.550781 321.792969 246.6875 321.410156 247.816406 C 321.027344 248.941406 320.605469 250.054688 320.152344 251.15625 C 319.695312 252.253906 319.207031 253.339844 318.679688 254.40625 C 318.152344 255.472656 317.59375 256.523438 316.996094 257.554688 C 316.402344 258.585938 315.773438 259.59375 315.113281 260.585938 C 314.453125 261.574219 313.757812 262.542969 313.035156 263.488281 C 312.308594 264.429688 311.554688 265.351562 310.769531 266.246094 C 309.984375 267.140625 309.171875 268.007812 308.332031 268.851562 C 307.488281 269.691406 306.621094 270.503906 305.726562 271.289062 C 304.832031 272.074219 303.910156 272.832031 302.96875 273.554688 C 302.023438 274.28125 301.054688 274.972656 300.066406 275.632812 C 299.078125 276.296875 298.066406 276.925781 297.035156 277.519531 C 296.003906 278.113281 294.957031 278.675781 293.886719 279.203125 C 292.820312 279.730469 291.738281 280.21875 290.636719 280.675781 C 289.539062 281.132812 288.425781 281.550781 287.296875 281.933594 C 286.171875 282.316406 285.03125 282.660156 283.882812 282.96875 C 282.730469 283.277344 281.574219 283.546875 280.40625 283.78125 C 279.238281 284.011719 278.066406 284.207031 276.886719 284.363281 C 275.703125 284.519531 274.519531 284.632812 273.332031 284.710938 C 272.144531 284.789062 270.957031 284.828125 269.765625 284.828125 Z M 139.355469 144.785156 C 139.355469 143.679688 139.300781 142.578125 139.195312 141.480469 C 139.085938 140.382812 138.921875 139.292969 138.707031 138.210938 C 138.492188 137.125 138.226562 136.058594 137.90625 135 C 137.585938 133.945312 137.210938 132.90625 136.789062 131.886719 C 136.367188 130.867188 135.898438 129.871094 135.375 128.898438 C 134.855469 127.925781 134.289062 126.976562 133.675781 126.0625 C 133.0625 125.144531 132.40625 124.257812 131.707031 123.40625 C 131.003906 122.550781 130.265625 121.734375 129.484375 120.953125 C 128.703125 120.171875 127.886719 119.433594 127.035156 118.734375 C 126.179688 118.03125 125.296875 117.375 124.378906 116.761719 C 123.460938 116.148438 122.515625 115.582031 121.542969 115.0625 C 120.566406 114.542969 119.570312 114.070312 118.550781 113.648438 C 117.53125 113.226562 116.496094 112.855469 115.4375 112.535156 C 114.382812 112.214844 113.3125 111.945312 112.230469 111.730469 C 111.148438 111.515625 110.058594 111.355469 108.957031 111.246094 C 107.859375 111.136719 106.757812 111.082031 105.65625 111.082031 C 104.550781 111.082031 103.449219 111.136719 102.351562 111.246094 C 101.253906 111.355469 100.164062 111.515625 99.082031 111.730469 C 98 111.945312 96.929688 112.214844 95.871094 112.535156 C 94.816406 112.855469 93.777344 113.226562 92.757812 113.648438 C 91.738281 114.070312 90.742188 114.542969 89.769531 115.0625 C 88.796875 115.582031 87.851562 116.148438 86.933594 116.761719 C 86.015625 117.375 85.128906 118.03125 84.277344 118.734375 C 83.421875 119.433594 82.605469 120.171875 81.824219 120.953125 C 81.046875 121.734375 80.304688 122.550781 79.605469 123.40625 C 78.902344 124.257812 78.246094 125.144531 77.632812 126.0625 C 77.019531 126.976562 76.453125 127.925781 75.933594 128.898438 C 75.414062 129.871094 74.941406 130.867188 74.519531 131.886719 C 74.097656 132.90625 73.726562 133.945312 73.40625 135 C 73.085938 136.058594 72.816406 137.125 72.601562 138.210938 C 72.386719 139.292969 72.226562 140.382812 72.117188 141.480469 C 72.007812 142.578125 71.953125 143.679688 71.953125 144.785156 C 71.953125 145.886719 72.007812 146.988281 72.117188 148.085938 C 72.226562 149.183594 72.386719 150.277344 72.601562 151.359375 C 72.816406 152.441406 73.085938 153.511719 73.40625 154.566406 C 73.726562 155.621094 74.097656 156.660156 74.519531 157.679688 C 74.941406 158.699219 75.414062 159.695312 75.933594 160.671875 C 76.453125 161.644531 77.019531 162.589844 77.632812 163.507812 C 78.246094 164.425781 78.902344 165.308594 79.605469 166.164062 C 80.304688 167.015625 81.046875 167.832031 81.824219 168.613281 C 82.605469 169.394531 83.421875 170.132812 84.277344 170.835938 C 85.128906 171.535156 86.015625 172.191406 86.933594 172.804688 C 87.851562 173.417969 88.796875 173.984375 89.769531 174.503906 C 90.742188 175.023438 91.738281 175.496094 92.757812 175.917969 C 93.777344 176.339844 94.816406 176.710938 95.871094 177.03125 C 96.929688 177.351562 98 177.621094 99.082031 177.835938 C 100.164062 178.050781 101.253906 178.214844 102.351562 178.320312 C 103.449219 178.429688 104.550781 178.484375 105.65625 178.484375 L 105.671875 178.484375 C 106.773438 178.484375 107.875 178.425781 108.972656 178.316406 C 110.070312 178.207031 111.160156 178.046875 112.242188 177.828125 C 113.324219 177.613281 114.390625 177.34375 115.445312 177.023438 C 116.503906 176.703125 117.539062 176.328125 118.558594 175.90625 C 119.578125 175.484375 120.574219 175.011719 121.546875 174.492188 C 122.519531 173.96875 123.460938 173.402344 124.378906 172.789062 C 125.296875 172.175781 126.179688 171.519531 127.035156 170.820312 C 127.886719 170.121094 128.703125 169.378906 129.480469 168.597656 C 130.261719 167.820312 131 167.003906 131.703125 166.148438 C 132.402344 165.296875 133.058594 164.414062 133.671875 163.496094 C 134.285156 162.578125 134.851562 161.632812 135.371094 160.660156 C 135.890625 159.6875 136.363281 158.691406 136.785156 157.671875 C 137.207031 156.652344 137.578125 155.617188 137.898438 154.558594 C 138.21875 153.503906 138.488281 152.4375 138.703125 151.355469 C 138.917969 150.273438 139.082031 149.183594 139.191406 148.085938 C 139.300781 146.988281 139.355469 145.886719 139.355469 144.785156 Z M 105.671875 170.578125 L 105.65625 170.578125 C 105.09375 170.578125 104.53125 170.558594 103.96875 170.523438 C 103.410156 170.484375 102.847656 170.429688 102.289062 170.355469 C 101.734375 170.28125 101.179688 170.191406 100.625 170.082031 C 100.074219 169.972656 99.527344 169.84375 98.984375 169.699219 C 98.441406 169.550781 97.902344 169.386719 97.367188 169.207031 C 96.835938 169.027344 96.308594 168.828125 95.789062 168.613281 C 95.269531 168.398438 94.757812 168.164062 94.253906 167.914062 C 93.75 167.667969 93.253906 167.402344 92.765625 167.121094 C 92.277344 166.839844 91.800781 166.542969 91.332031 166.226562 C 90.863281 165.914062 90.40625 165.589844 89.960938 165.246094 C 89.515625 164.902344 89.082031 164.546875 88.65625 164.175781 C 88.234375 163.804688 87.824219 163.417969 87.425781 163.019531 C 87.027344 162.621094 86.644531 162.210938 86.273438 161.789062 C 85.902344 161.367188 85.546875 160.929688 85.203125 160.484375 C 84.859375 160.039062 84.53125 159.582031 84.21875 159.113281 C 83.90625 158.644531 83.609375 158.167969 83.328125 157.679688 C 83.046875 157.191406 82.785156 156.695312 82.535156 156.191406 C 82.285156 155.6875 82.054688 155.175781 81.839844 154.65625 C 81.625 154.132812 81.425781 153.609375 81.246094 153.074219 C 81.0625 152.542969 80.902344 152.003906 80.753906 151.460938 C 80.609375 150.917969 80.480469 150.371094 80.371094 149.816406 C 80.261719 149.265625 80.171875 148.710938 80.097656 148.152344 C 80.023438 147.59375 79.96875 147.035156 79.933594 146.472656 C 79.894531 145.910156 79.878906 145.351562 79.878906 144.789062 C 79.878906 144.222656 79.894531 143.664062 79.933594 143.101562 C 79.96875 142.539062 80.023438 141.980469 80.097656 141.421875 C 80.171875 140.863281 80.265625 140.308594 80.375 139.757812 C 80.484375 139.203125 80.609375 138.65625 80.757812 138.113281 C 80.902344 137.570312 81.066406 137.03125 81.246094 136.5 C 81.429688 135.964844 81.625 135.441406 81.839844 134.921875 C 82.058594 134.398438 82.289062 133.886719 82.539062 133.382812 C 82.785156 132.878906 83.050781 132.382812 83.332031 131.894531 C 83.613281 131.40625 83.910156 130.929688 84.226562 130.460938 C 84.539062 129.996094 84.863281 129.539062 85.207031 129.089844 C 85.550781 128.644531 85.90625 128.210938 86.277344 127.785156 C 86.648438 127.363281 87.035156 126.953125 87.433594 126.554688 C 87.828125 126.15625 88.238281 125.773438 88.664062 125.402344 C 89.085938 125.03125 89.519531 124.675781 89.96875 124.332031 C 90.414062 123.988281 90.871094 123.660156 91.339844 123.347656 C 91.808594 123.035156 92.285156 122.738281 92.773438 122.457031 C 93.257812 122.175781 93.753906 121.910156 94.261719 121.664062 C 94.765625 121.414062 95.277344 121.183594 95.796875 120.96875 C 96.316406 120.75 96.84375 120.554688 97.375 120.371094 C 97.910156 120.191406 98.445312 120.027344 98.992188 119.882812 C 99.535156 119.738281 100.082031 119.609375 100.632812 119.5 C 101.1875 119.390625 101.742188 119.296875 102.296875 119.226562 C 102.855469 119.152344 103.417969 119.097656 103.976562 119.058594 C 104.539062 119.023438 105.101562 119.003906 105.664062 119.003906 C 106.226562 119.003906 106.789062 119.023438 107.351562 119.058594 C 107.914062 119.097656 108.472656 119.152344 109.03125 119.226562 C 109.585938 119.296875 110.144531 119.390625 110.695312 119.5 C 111.246094 119.609375 111.792969 119.738281 112.335938 119.882812 C 112.882812 120.027344 113.417969 120.191406 113.953125 120.371094 C 114.484375 120.554688 115.011719 120.75 115.53125 120.96875 C 116.050781 121.183594 116.5625 121.414062 117.070312 121.664062 C 117.574219 121.910156 118.070312 122.175781 118.554688 122.457031 C 119.042969 122.738281 119.523438 123.035156 119.988281 123.347656 C 120.457031 123.660156 120.914062 123.988281 121.359375 124.332031 C 121.808594 124.675781 122.242188 125.03125 122.664062 125.402344 C 123.089844 125.773438 123.5 126.15625 123.898438 126.554688 C 124.292969 126.953125 124.679688 127.363281 125.050781 127.785156 C 125.421875 128.210938 125.777344 128.644531 126.121094 129.089844 C 126.464844 129.539062 126.792969 129.996094 127.105469 130.460938 C 127.417969 130.929688 127.714844 131.40625 127.996094 131.894531 C 128.277344 132.382812 128.542969 132.878906 128.789062 133.382812 C 129.039062 133.886719 129.273438 134.398438 129.488281 134.921875 C 129.703125 135.441406 129.902344 135.964844 130.082031 136.5 C 130.261719 137.03125 130.425781 137.570312 130.570312 138.113281 C 130.71875 138.65625 130.84375 139.203125 130.953125 139.757812 C 131.066406 140.308594 131.15625 140.863281 131.230469 141.421875 C 131.304688 141.980469 131.359375 142.539062 131.394531 143.101562 C 131.433594 143.664062 131.449219 144.222656 131.449219 144.789062 C 131.449219 145.351562 131.433594 145.910156 131.394531 146.472656 C 131.359375 147.035156 131.304688 147.59375 131.230469 148.152344 C 131.15625 148.710938 131.066406 149.265625 130.957031 149.816406 C 130.847656 150.371094 130.71875 150.917969 130.574219 151.460938 C 130.429688 152.003906 130.265625 152.542969 130.085938 153.074219 C 129.902344 153.609375 129.707031 154.132812 129.488281 154.65625 C 129.273438 155.175781 129.042969 155.6875 128.792969 156.191406 C 128.546875 156.695312 128.28125 157.191406 128 157.679688 C 127.71875 158.167969 127.421875 158.644531 127.109375 159.113281 C 126.796875 159.582031 126.46875 160.039062 126.125 160.484375 C 125.785156 160.929688 125.425781 161.367188 125.054688 161.789062 C 124.683594 162.210938 124.300781 162.621094 123.902344 163.019531 C 123.503906 163.417969 123.09375 163.804688 122.671875 164.175781 C 122.25 164.546875 121.8125 164.902344 121.367188 165.246094 C 120.921875 165.589844 120.464844 165.914062 119.996094 166.226562 C 119.527344 166.542969 119.050781 166.839844 118.5625 167.121094 C 118.074219 167.402344 117.582031 167.667969 117.074219 167.914062 C 116.570312 168.164062 116.058594 168.398438 115.539062 168.613281 C 115.019531 168.828125 114.492188 169.027344 113.960938 169.207031 C 113.425781 169.386719 112.890625 169.550781 112.34375 169.699219 C 111.800781 169.84375 111.253906 169.972656 110.703125 170.082031 C 110.152344 170.191406 109.59375 170.28125 109.039062 170.355469 C 108.480469 170.429688 107.921875 170.484375 107.359375 170.523438 C 106.796875 170.558594 106.234375 170.578125 105.671875 170.578125 Z M 117.527344 203.726562 L 119.089844 197.445312 L 119.824219 194.554688 C 123.671875 193.460938 127.339844 191.933594 130.832031 189.976562 L 138.972656 194.851562 C 139.3125 195.054688 139.671875 195.203125 140.054688 195.296875 C 140.4375 195.394531 140.828125 195.429688 141.222656 195.40625 C 141.617188 195.386719 141.996094 195.308594 142.367188 195.171875 C 142.738281 195.035156 143.082031 194.847656 143.394531 194.609375 C 147.972656 191.128906 152.003906 187.101562 155.480469 182.523438 C 155.71875 182.207031 155.90625 181.867188 156.042969 181.5 C 156.179688 181.128906 156.257812 180.75 156.28125 180.355469 C 156.300781 179.960938 156.265625 179.574219 156.171875 179.191406 C 156.078125 178.8125 155.933594 178.449219 155.730469 178.113281 L 150.867188 169.953125 C 152.8125 166.464844 154.332031 162.800781 155.425781 158.960938 L 164.625 156.648438 C 165.007812 156.554688 165.371094 156.402344 165.710938 156.199219 C 166.046875 155.992188 166.347656 155.742188 166.613281 155.445312 C 166.875 155.152344 167.089844 154.824219 167.253906 154.464844 C 167.417969 154.105469 167.527344 153.726562 167.578125 153.335938 C 167.957031 150.503906 168.144531 147.65625 168.144531 144.800781 C 168.148438 141.933594 167.953125 139.078125 167.5625 136.238281 C 167.507812 135.847656 167.398438 135.476562 167.234375 135.121094 C 167.070312 134.761719 166.855469 134.4375 166.59375 134.148438 C 166.332031 133.855469 166.03125 133.605469 165.699219 133.402344 C 165.363281 133.199219 165.003906 133.050781 164.625 132.953125 L 158.308594 131.347656 L 155.425781 130.632812 C 154.328125 126.789062 152.808594 123.121094 150.863281 119.632812 L 155.726562 111.496094 C 155.929688 111.15625 156.078125 110.796875 156.171875 110.414062 C 156.265625 110.03125 156.304688 109.644531 156.28125 109.253906 C 156.261719 108.859375 156.183594 108.476562 156.046875 108.109375 C 155.910156 107.738281 155.722656 107.398438 155.488281 107.082031 C 152.015625 102.488281 147.980469 98.449219 143.390625 94.972656 C 143.078125 94.734375 142.734375 94.546875 142.363281 94.410156 C 141.996094 94.277344 141.613281 94.195312 141.21875 94.175781 C 140.824219 94.15625 140.4375 94.191406 140.054688 94.285156 C 139.671875 94.378906 139.3125 94.527344 138.976562 94.730469 L 130.832031 99.597656 C 127.34375 97.648438 123.671875 96.128906 119.824219 95.039062 L 117.523438 85.859375 C 117.429688 85.472656 117.277344 85.109375 117.074219 84.769531 C 116.867188 84.433594 116.617188 84.128906 116.324219 83.867188 C 116.027344 83.601562 115.699219 83.386719 115.339844 83.222656 C 114.976562 83.054688 114.601562 82.945312 114.207031 82.894531 C 108.515625 82.121094 102.824219 82.121094 97.132812 82.894531 C 96.742188 82.945312 96.367188 83.054688 96.003906 83.21875 C 95.644531 83.382812 95.320312 83.597656 95.023438 83.863281 C 94.730469 84.125 94.476562 84.425781 94.273438 84.765625 C 94.070312 85.101562 93.917969 85.460938 93.820312 85.847656 L 91.511719 95.042969 C 87.664062 96.132812 83.992188 97.652344 80.496094 99.597656 L 72.375 94.734375 C 72.039062 94.53125 71.675781 94.382812 71.292969 94.285156 C 70.910156 94.191406 70.523438 94.15625 70.128906 94.175781 C 69.734375 94.195312 69.351562 94.273438 68.984375 94.410156 C 68.613281 94.546875 68.269531 94.734375 67.957031 94.972656 C 63.359375 98.449219 59.324219 102.488281 55.855469 107.089844 C 55.617188 107.402344 55.433594 107.742188 55.296875 108.109375 C 55.164062 108.480469 55.085938 108.859375 55.0625 109.25 C 55.042969 109.644531 55.078125 110.03125 55.171875 110.410156 C 55.265625 110.792969 55.414062 111.152344 55.613281 111.488281 L 60.46875 119.636719 C 58.527344 123.125 57.007812 126.792969 55.914062 130.632812 L 46.714844 132.949219 C 46.332031 133.046875 45.972656 133.195312 45.632812 133.402344 C 45.296875 133.605469 44.996094 133.855469 44.734375 134.152344 C 44.46875 134.445312 44.257812 134.773438 44.09375 135.132812 C 43.925781 135.492188 43.820312 135.867188 43.765625 136.257812 C 42.992188 141.949219 42.992188 147.640625 43.765625 153.335938 C 43.820312 153.726562 43.925781 154.101562 44.09375 154.460938 C 44.257812 154.824219 44.472656 155.148438 44.734375 155.445312 C 45 155.742188 45.300781 155.992188 45.640625 156.195312 C 45.976562 156.402344 46.339844 156.550781 46.722656 156.648438 L 55.925781 158.957031 C 57.015625 162.796875 58.535156 166.457031 60.476562 169.945312 L 55.621094 178.105469 C 55.421875 178.445312 55.273438 178.804688 55.179688 179.1875 C 55.085938 179.570312 55.050781 179.957031 55.070312 180.351562 C 55.09375 180.742188 55.171875 181.125 55.308594 181.496094 C 55.445312 181.863281 55.632812 182.207031 55.871094 182.519531 C 59.347656 187.09375 63.378906 191.117188 67.957031 194.589844 C 68.269531 194.828125 68.613281 195.015625 68.980469 195.152344 C 69.351562 195.289062 69.734375 195.367188 70.128906 195.390625 C 70.519531 195.410156 70.910156 195.375 71.292969 195.28125 C 71.675781 195.1875 72.035156 195.039062 72.375 194.835938 L 80.5 189.976562 C 83.992188 191.929688 87.660156 193.453125 91.507812 194.550781 L 93.820312 203.75 C 93.917969 204.132812 94.066406 204.496094 94.273438 204.835938 C 94.476562 205.171875 94.726562 205.476562 95.023438 205.738281 C 95.316406 206.003906 95.644531 206.214844 96.003906 206.382812 C 96.363281 206.546875 96.742188 206.65625 97.132812 206.707031 C 99.964844 207.085938 102.8125 207.273438 105.671875 207.273438 C 108.539062 207.273438 111.390625 207.082031 114.230469 206.691406 C 114.621094 206.636719 114.996094 206.527344 115.355469 206.359375 C 115.710938 206.195312 116.039062 205.980469 116.332031 205.714844 C 116.625 205.449219 116.875 205.148438 117.078125 204.8125 C 117.28125 204.472656 117.429688 204.109375 117.523438 203.726562 Z M 112.742188 190.339844 L 111.425781 195.515625 L 110.519531 199.15625 C 107.289062 199.433594 104.058594 199.433594 100.824219 199.160156 L 98.589844 190.339844 C 98.40625 189.625 98.054688 189.011719 97.527344 188.496094 C 97.003906 187.980469 96.378906 187.636719 95.664062 187.46875 C 91 186.371094 86.636719 184.554688 82.574219 182.023438 C 81.945312 181.632812 81.261719 181.433594 80.519531 181.425781 C 79.78125 181.421875 79.09375 181.609375 78.457031 181.988281 L 70.660156 186.648438 C 68.175781 184.566406 65.890625 182.285156 63.808594 179.804688 L 68.460938 171.96875 C 68.835938 171.335938 69.019531 170.648438 69.011719 169.914062 C 69.003906 169.175781 68.808594 168.496094 68.417969 167.871094 C 65.898438 163.808594 64.09375 159.449219 63.003906 154.792969 C 62.835938 154.074219 62.492188 153.449219 61.972656 152.925781 C 61.453125 152.398438 60.835938 152.042969 60.121094 151.863281 L 51.308594 149.648438 C 51.164062 148.003906 51.089844 146.382812 51.089844 144.800781 C 51.089844 143.207031 51.164062 141.582031 51.308594 139.945312 L 60.109375 137.742188 C 60.832031 137.5625 61.453125 137.207031 61.972656 136.675781 C 62.496094 136.148438 62.839844 135.519531 63.007812 134.796875 C 64.097656 130.128906 65.902344 125.761719 68.425781 121.6875 C 68.8125 121.0625 69.007812 120.378906 69.015625 119.640625 C 69.019531 118.902344 68.832031 118.21875 68.453125 117.585938 L 63.800781 109.789062 C 65.878906 107.292969 68.164062 105.003906 70.65625 102.921875 L 78.46875 107.585938 C 79.101562 107.960938 79.785156 108.144531 80.519531 108.140625 C 81.257812 108.132812 81.9375 107.9375 82.566406 107.550781 C 86.636719 105.023438 91.003906 103.21875 95.667969 102.132812 C 96.390625 101.964844 97.015625 101.621094 97.546875 101.101562 C 98.074219 100.582031 98.429688 99.964844 98.609375 99.242188 L 100.820312 90.433594 C 104.054688 90.144531 107.285156 90.144531 110.519531 90.433594 L 112.738281 99.253906 C 112.921875 99.972656 113.277344 100.589844 113.804688 101.105469 C 114.332031 101.625 114.957031 101.96875 115.679688 102.132812 C 120.335938 103.214844 124.699219 105.019531 128.761719 107.546875 C 129.386719 107.933594 130.070312 108.132812 130.804688 108.140625 C 131.542969 108.148438 132.230469 107.960938 132.863281 107.585938 L 140.6875 102.921875 C 143.175781 105.003906 145.460938 107.292969 147.539062 109.785156 L 142.875 117.582031 C 142.496094 118.21875 142.308594 118.902344 142.316406 119.640625 C 142.320312 120.382812 142.519531 121.066406 142.90625 121.691406 C 145.4375 125.765625 147.246094 130.136719 148.339844 134.800781 C 148.507812 135.523438 148.855469 136.148438 149.375 136.679688 C 149.898438 137.207031 150.519531 137.558594 151.238281 137.738281 L 156.382812 139.011719 L 160.027344 139.941406 C 160.167969 141.53125 160.238281 143.15625 160.238281 144.800781 C 160.238281 146.414062 160.167969 148.039062 160.03125 149.652344 L 151.226562 151.863281 C 150.507812 152.042969 149.890625 152.394531 149.371094 152.921875 C 148.851562 153.449219 148.507812 154.074219 148.339844 154.792969 C 147.246094 159.453125 145.4375 163.816406 142.910156 167.882812 C 142.519531 168.511719 142.320312 169.199219 142.3125 169.9375 C 142.308594 170.679688 142.496094 171.367188 142.875 172.003906 L 147.539062 179.804688 C 145.453125 182.292969 143.167969 184.578125 140.679688 186.660156 L 132.867188 181.988281 C 132.230469 181.609375 131.542969 181.421875 130.800781 181.429688 C 130.0625 181.433594 129.375 181.636719 128.746094 182.027344 C 124.6875 184.5625 120.328125 186.378906 115.667969 187.46875 C 114.949219 187.636719 114.328125 187.976562 113.800781 188.496094 C 113.273438 189.011719 112.921875 189.625 112.738281 190.339844 Z M 308.042969 210.378906 L 296.1875 198.527344 C 295.816406 198.15625 295.390625 197.871094 294.90625 197.667969 C 294.421875 197.46875 293.917969 197.367188 293.394531 197.367188 C 292.871094 197.367188 292.363281 197.46875 291.882812 197.667969 C 291.398438 197.871094 290.96875 198.15625 290.597656 198.527344 L 259.214844 229.910156 L 248.902344 219.601562 C 248.53125 219.230469 248.105469 218.945312 247.621094 218.746094 C 247.136719 218.542969 246.632812 218.445312 246.109375 218.445312 C 245.585938 218.445312 245.078125 218.542969 244.597656 218.746094 C 244.113281 218.945312 243.683594 219.230469 243.3125 219.601562 L 231.460938 231.457031 C 231.089844 231.828125 230.804688 232.257812 230.601562 232.738281 C 230.402344 233.222656 230.300781 233.726562 230.300781 234.253906 C 230.300781 234.777344 230.402344 235.28125 230.601562 235.765625 C 230.804688 236.25 231.089844 236.675781 231.460938 237.046875 L 256.421875 262.007812 C 256.792969 262.378906 257.21875 262.664062 257.703125 262.867188 C 258.1875 263.066406 258.691406 263.167969 259.214844 263.167969 C 259.742188 263.167969 260.246094 263.066406 260.730469 262.867188 C 261.210938 262.664062 261.640625 262.378906 262.011719 262.007812 L 308.046875 215.972656 C 308.230469 215.789062 308.394531 215.589844 308.539062 215.371094 C 308.683594 215.15625 308.804688 214.929688 308.902344 214.6875 C 309.003906 214.449219 309.078125 214.199219 309.128906 213.945312 C 309.179688 213.691406 309.203125 213.433594 309.203125 213.175781 C 309.203125 212.914062 309.175781 212.65625 309.125 212.402344 C 309.074219 212.148438 309 211.902344 308.898438 211.660156 C 308.800781 211.421875 308.675781 211.195312 308.53125 210.976562 C 308.386719 210.761719 308.222656 210.5625 308.039062 210.378906 Z M 259.214844 253.621094 L 239.839844 234.246094 L 246.105469 227.980469 L 256.417969 238.292969 C 256.785156 238.664062 257.214844 238.949219 257.699219 239.148438 C 258.183594 239.351562 258.6875 239.449219 259.210938 239.449219 C 259.734375 239.449219 260.238281 239.351562 260.722656 239.148438 C 261.207031 238.949219 261.632812 238.664062 262.003906 238.292969 L 293.390625 206.90625 L 299.65625 213.171875 Z M 201.25 250.234375 C 176.179688 254.808594 162.339844 250.792969 148.34375 234.300781 L 154.257812 229.210938 C 154.820312 228.730469 155.214844 228.136719 155.441406 227.433594 C 155.667969 226.730469 155.699219 226.019531 155.527344 225.300781 C 155.355469 224.582031 155.011719 223.960938 154.492188 223.4375 C 153.972656 222.910156 153.351562 222.558594 152.636719 222.382812 L 116.226562 213.320312 C 115.921875 213.246094 115.609375 213.207031 115.292969 213.203125 C 114.976562 213.203125 114.667969 213.238281 114.359375 213.3125 C 114.050781 213.382812 113.757812 213.492188 113.476562 213.636719 C 113.195312 213.78125 112.933594 213.953125 112.695312 214.160156 C 112.453125 214.367188 112.242188 214.597656 112.058594 214.855469 C 111.875 215.113281 111.722656 215.386719 111.605469 215.679688 C 111.488281 215.972656 111.40625 216.277344 111.363281 216.589844 C 111.316406 216.902344 111.308594 217.214844 111.339844 217.53125 L 114.875 254.863281 C 114.945312 255.597656 115.203125 256.261719 115.644531 256.855469 C 116.085938 257.449219 116.648438 257.882812 117.335938 258.15625 C 118.019531 258.433594 118.726562 258.511719 119.457031 258.390625 C 120.183594 258.269531 120.828125 257.96875 121.386719 257.488281 L 126.992188 252.667969 C 139.53125 263.683594 152.433594 272.792969 167.871094 272.789062 C 178.59375 272.789062 190.539062 268.394531 204.4375 257.199219 C 204.777344 256.925781 205.066406 256.601562 205.300781 256.230469 C 205.535156 255.859375 205.703125 255.457031 205.804688 255.03125 C 205.90625 254.601562 205.933594 254.167969 205.890625 253.730469 C 205.847656 253.292969 205.734375 252.875 205.550781 252.476562 C 205.371094 252.078125 205.125 251.71875 204.824219 251.398438 C 204.519531 251.078125 204.175781 250.820312 203.785156 250.617188 C 203.394531 250.414062 202.980469 250.277344 202.546875 250.214844 C 202.113281 250.148438 201.679688 250.15625 201.246094 250.234375 Z M 161.492188 264.234375 C 150.90625 262.066406 141.117188 254.769531 129.683594 244.480469 C 129.324219 244.15625 128.921875 243.910156 128.476562 243.734375 C 128.027344 243.5625 127.5625 243.472656 127.082031 243.464844 C 126.601562 243.460938 126.136719 243.539062 125.683594 243.707031 C 125.234375 243.871094 124.824219 244.109375 124.460938 244.421875 L 122.027344 246.515625 L 119.730469 222.34375 L 143.300781 228.207031 L 140.261719 230.820312 C 139.878906 231.152344 139.566406 231.542969 139.332031 231.996094 C 139.097656 232.445312 138.957031 232.925781 138.90625 233.429688 C 138.859375 233.9375 138.902344 234.433594 139.046875 234.921875 C 139.1875 235.410156 139.417969 235.855469 139.730469 236.253906 C 148.3125 247.195312 156.417969 253.597656 166.015625 257.007812 C 171.96875 259.125 178.621094 260.066406 186.371094 259.847656 C 177.566406 264.46875 169.457031 265.867188 161.488281 264.234375 Z M 167.75 124.222656 C 192.8125 119.644531 206.648438 123.664062 220.652344 140.164062 L 214.742188 145.242188 C 214.179688 145.722656 213.785156 146.316406 213.554688 147.019531 C 213.328125 147.722656 213.296875 148.433594 213.46875 149.152344 C 213.640625 149.871094 213.984375 150.496094 214.503906 151.019531 C 215.023438 151.546875 215.644531 151.898438 216.359375 152.078125 L 252.765625 161.148438 C 253.070312 161.226562 253.382812 161.265625 253.699219 161.269531 C 254.015625 161.269531 254.324219 161.234375 254.632812 161.160156 C 254.941406 161.089844 255.234375 160.980469 255.515625 160.835938 C 255.796875 160.691406 256.058594 160.519531 256.296875 160.3125 C 256.539062 160.105469 256.75 159.875 256.933594 159.617188 C 257.117188 159.359375 257.269531 159.085938 257.386719 158.792969 C 257.503906 158.5 257.585938 158.195312 257.632812 157.882812 C 257.675781 157.570312 257.683594 157.257812 257.65625 156.941406 L 254.117188 119.59375 C 254.050781 118.859375 253.792969 118.195312 253.351562 117.601562 C 252.910156 117.007812 252.34375 116.574219 251.660156 116.300781 C 250.972656 116.023438 250.265625 115.945312 249.535156 116.066406 C 248.808594 116.1875 248.164062 116.492188 247.601562 116.972656 L 242 121.800781 C 220.765625 103.128906 198.480469 89.941406 164.558594 117.253906 C 164.21875 117.53125 163.929688 117.855469 163.695312 118.226562 C 163.460938 118.597656 163.292969 118.996094 163.191406 119.425781 C 163.089844 119.851562 163.058594 120.285156 163.105469 120.722656 C 163.148438 121.160156 163.261719 121.578125 163.441406 121.980469 C 163.625 122.378906 163.867188 122.738281 164.171875 123.058594 C 164.476562 123.375 164.820312 123.636719 165.210938 123.839844 C 165.601562 124.042969 166.011719 124.175781 166.449219 124.242188 C 166.882812 124.308594 167.316406 124.300781 167.75 124.222656 Z M 207.503906 110.230469 C 218.097656 112.398438 227.882812 119.699219 239.3125 129.992188 C 239.671875 130.3125 240.074219 130.5625 240.523438 130.738281 C 240.96875 130.910156 241.433594 131 241.917969 131.007812 C 242.398438 131.011719 242.863281 130.933594 243.316406 130.765625 C 243.765625 130.601562 244.175781 130.363281 244.539062 130.046875 L 246.964844 127.953125 L 249.253906 152.128906 L 225.691406 146.257812 L 228.722656 143.65625 C 229.105469 143.324219 229.417969 142.933594 229.652344 142.480469 C 229.886719 142.03125 230.03125 141.550781 230.078125 141.042969 C 230.128906 140.539062 230.082031 140.039062 229.941406 139.550781 C 229.796875 139.0625 229.570312 138.617188 229.257812 138.21875 C 220.675781 127.273438 212.570312 120.871094 202.972656 117.457031 C 197.019531 115.339844 190.367188 114.398438 182.625 114.609375 C 191.433594 109.992188 199.539062 108.597656 207.503906 110.230469 Z M 207.503906 110.230469 " fill-opacity="1" fill-rule="nonzero"/></g></svg>