<svg xmlns="http://www.w3.org/2000/svg" xmlns:xlink="http://www.w3.org/1999/xlink" width="500" zoomAndPan="magnify" viewBox="0 0 375 374.999991" height="500" preserveAspectRatio="xMidYMid meet" version="1.0"><defs><clipPath id="90941a5219"><path d="M 37.5 96 L 282 96 L 282 308.808594 L 37.5 308.808594 Z M 37.5 96 " clip-rule="nonzero"/></clipPath></defs><g clip-path="url(#90941a5219)"><path fill="#0049a7" d="M 277.289062 222.183594 C 276.933594 222.144531 276.578125 222.144531 276.226562 222.183594 L 47.933594 222.183594 L 47.933594 120.769531 C 47.9375 119.84375 48.035156 118.929688 48.21875 118.023438 C 48.402344 117.117188 48.675781 116.242188 49.03125 115.390625 C 49.390625 114.535156 49.828125 113.726562 50.34375 112.960938 C 50.859375 112.195312 51.445312 111.488281 52.101562 110.835938 C 52.757812 110.1875 53.46875 109.605469 54.238281 109.09375 C 55.007812 108.582031 55.820312 108.152344 56.675781 107.800781 C 57.53125 107.449219 58.410156 107.183594 59.316406 107.007812 C 60.222656 106.828125 61.140625 106.742188 62.0625 106.742188 L 176.910156 106.742188 C 177.25 106.742188 177.585938 106.710938 177.917969 106.644531 C 178.253906 106.578125 178.578125 106.476562 178.890625 106.347656 C 179.207031 106.21875 179.503906 106.058594 179.789062 105.867188 C 180.070312 105.679688 180.332031 105.464844 180.574219 105.222656 C 180.816406 104.984375 181.03125 104.722656 181.21875 104.4375 C 181.410156 104.15625 181.566406 103.855469 181.699219 103.542969 C 181.828125 103.226562 181.925781 102.902344 181.992188 102.570312 C 182.058594 102.234375 182.09375 101.898438 182.09375 101.558594 C 182.09375 101.21875 182.058594 100.878906 181.992188 100.546875 C 181.925781 100.210938 181.828125 99.886719 181.699219 99.574219 C 181.566406 99.257812 181.410156 98.960938 181.21875 98.675781 C 181.03125 98.394531 180.816406 98.132812 180.574219 97.890625 C 180.332031 97.652344 180.070312 97.4375 179.789062 97.246094 C 179.503906 97.058594 179.207031 96.898438 178.890625 96.765625 C 178.578125 96.636719 178.253906 96.539062 177.917969 96.472656 C 177.585938 96.40625 177.25 96.371094 176.910156 96.371094 L 62.0625 96.371094 C 61.261719 96.371094 60.460938 96.410156 59.664062 96.492188 C 58.867188 96.570312 58.074219 96.6875 57.289062 96.84375 C 56.503906 97 55.726562 97.191406 54.960938 97.425781 C 54.195312 97.65625 53.441406 97.925781 52.699219 98.234375 C 51.960938 98.539062 51.234375 98.878906 50.527344 99.257812 C 49.820312 99.636719 49.136719 100.046875 48.46875 100.492188 C 47.800781 100.933594 47.160156 101.410156 46.539062 101.917969 C 45.917969 102.425781 45.324219 102.964844 44.757812 103.53125 C 44.191406 104.097656 43.652344 104.6875 43.144531 105.308594 C 42.636719 105.925781 42.15625 106.566406 41.710938 107.234375 C 41.265625 107.898438 40.851562 108.585938 40.472656 109.292969 C 40.09375 109.996094 39.753906 110.71875 39.445312 111.460938 C 39.136719 112.199219 38.867188 112.953125 38.632812 113.71875 C 38.398438 114.484375 38.203125 115.261719 38.042969 116.046875 C 37.886719 116.832031 37.765625 117.625 37.6875 118.421875 C 37.605469 119.21875 37.566406 120.019531 37.566406 120.820312 L 37.566406 239.8125 C 37.566406 240.613281 37.605469 241.414062 37.6875 242.210938 C 37.765625 243.007812 37.886719 243.800781 38.042969 244.585938 C 38.203125 245.371094 38.398438 246.144531 38.632812 246.914062 C 38.867188 247.679688 39.136719 248.433594 39.445312 249.171875 C 39.753906 249.910156 40.09375 250.632812 40.472656 251.339844 C 40.851562 252.046875 41.265625 252.734375 41.710938 253.398438 C 42.15625 254.0625 42.636719 254.707031 43.144531 255.324219 C 43.652344 255.945312 44.191406 256.535156 44.757812 257.101562 C 45.324219 257.667969 45.917969 258.207031 46.539062 258.714844 C 47.160156 259.21875 47.800781 259.695312 48.46875 260.140625 C 49.136719 260.585938 49.820312 260.996094 50.527344 261.375 C 51.234375 261.75 51.960938 262.09375 52.699219 262.398438 C 53.441406 262.707031 54.195312 262.976562 54.960938 263.207031 C 55.726562 263.441406 56.503906 263.632812 57.289062 263.789062 C 58.074219 263.945312 58.867188 264.0625 59.664062 264.140625 C 60.460938 264.21875 61.261719 264.257812 62.0625 264.257812 L 116.011719 264.257812 L 109.347656 276.753906 L 102.480469 276.753906 C 101.703125 276.757812 100.925781 276.800781 100.152344 276.882812 C 99.378906 276.960938 98.609375 277.078125 97.847656 277.234375 C 97.085938 277.390625 96.332031 277.582031 95.589844 277.8125 C 94.847656 278.039062 94.117188 278.304688 93.398438 278.605469 C 92.679688 278.90625 91.980469 279.242188 91.292969 279.609375 C 90.609375 279.976562 89.945312 280.378906 89.300781 280.8125 C 88.652344 281.25 88.03125 281.710938 87.429688 282.207031 C 86.832031 282.703125 86.257812 283.226562 85.707031 283.777344 C 85.160156 284.328125 84.636719 284.90625 84.144531 285.507812 C 83.652344 286.109375 83.191406 286.734375 82.761719 287.382812 C 82.328125 288.027344 81.929688 288.695312 81.5625 289.382812 C 81.199219 290.070312 80.867188 290.769531 80.570312 291.488281 C 80.273438 292.210938 80.011719 292.941406 79.785156 293.683594 C 79.558594 294.429688 79.371094 295.183594 79.21875 295.945312 C 79.066406 296.710938 78.953125 297.476562 78.875 298.25 C 78.796875 299.027344 78.757812 299.800781 78.757812 300.578125 L 78.757812 303.171875 C 78.757812 303.511719 78.792969 303.851562 78.859375 304.183594 C 78.925781 304.515625 79.023438 304.839844 79.152344 305.15625 C 79.285156 305.46875 79.441406 305.769531 79.632812 306.050781 C 79.820312 306.335938 80.035156 306.597656 80.277344 306.839844 C 80.519531 307.078125 80.78125 307.292969 81.0625 307.484375 C 81.347656 307.671875 81.644531 307.832031 81.960938 307.960938 C 82.273438 308.09375 82.597656 308.191406 82.933594 308.257812 C 83.265625 308.324219 83.601562 308.355469 83.941406 308.355469 L 235.132812 308.355469 C 235.476562 308.355469 235.8125 308.324219 236.144531 308.257812 C 236.480469 308.191406 236.804688 308.09375 237.117188 307.960938 C 237.433594 307.832031 237.730469 307.671875 238.015625 307.484375 C 238.296875 307.292969 238.558594 307.078125 238.800781 306.839844 C 239.042969 306.597656 239.257812 306.335938 239.445312 306.050781 C 239.636719 305.769531 239.792969 305.46875 239.925781 305.15625 C 240.054688 304.839844 240.152344 304.515625 240.21875 304.183594 C 240.285156 303.851562 240.320312 303.511719 240.320312 303.171875 L 240.320312 300.578125 C 240.320312 299.800781 240.28125 299.023438 240.203125 298.246094 C 240.128906 297.46875 240.015625 296.699219 239.863281 295.933594 C 239.710938 295.171875 239.519531 294.414062 239.296875 293.667969 C 239.070312 292.921875 238.808594 292.1875 238.507812 291.46875 C 238.210938 290.746094 237.878906 290.042969 237.511719 289.355469 C 237.144531 288.667969 236.742188 288 236.308594 287.351562 C 235.875 286.703125 235.414062 286.078125 234.917969 285.472656 C 234.425781 284.871094 233.902344 284.292969 233.351562 283.742188 C 232.800781 283.191406 232.222656 282.667969 231.621094 282.171875 C 231.019531 281.675781 230.394531 281.210938 229.746094 280.777344 C 229.097656 280.34375 228.429688 279.945312 227.742188 279.578125 C 227.054688 279.207031 226.351562 278.875 225.628906 278.574219 C 224.910156 278.277344 224.175781 278.015625 223.429688 277.785156 C 222.683594 277.558594 221.929688 277.371094 221.164062 277.21875 C 220.402344 277.0625 219.628906 276.949219 218.855469 276.871094 C 218.078125 276.796875 217.300781 276.757812 216.519531 276.753906 L 209.652344 276.753906 L 202.960938 264.207031 L 256.964844 264.207031 C 257.761719 264.207031 258.5625 264.167969 259.359375 264.085938 C 260.15625 264.007812 260.945312 263.890625 261.730469 263.734375 C 262.515625 263.578125 263.289062 263.382812 264.054688 263.148438 C 264.824219 262.917969 265.574219 262.648438 266.3125 262.339844 C 267.054688 262.03125 267.777344 261.691406 268.480469 261.3125 C 269.1875 260.9375 269.875 260.523438 270.539062 260.078125 C 271.203125 259.632812 271.847656 259.160156 272.464844 258.652344 C 273.082031 258.144531 273.675781 257.605469 274.242188 257.039062 C 274.808594 256.472656 275.34375 255.882812 275.851562 255.261719 C 276.359375 254.644531 276.835938 254.003906 277.28125 253.335938 C 277.726562 252.671875 278.136719 251.984375 278.515625 251.28125 C 278.894531 250.574219 279.234375 249.851562 279.542969 249.113281 C 279.847656 248.371094 280.117188 247.621094 280.351562 246.855469 C 280.585938 246.089844 280.777344 245.3125 280.9375 244.527344 C 281.09375 243.742188 281.210938 242.953125 281.289062 242.15625 C 281.367188 241.359375 281.410156 240.5625 281.410156 239.761719 L 281.410156 227.367188 C 281.421875 226.765625 281.332031 226.175781 281.140625 225.601562 C 280.945312 225.027344 280.660156 224.507812 280.285156 224.03125 C 279.910156 223.558594 279.460938 223.164062 278.949219 222.847656 C 278.433594 222.527344 277.878906 222.308594 277.289062 222.183594 Z M 206.539062 286.996094 L 216.519531 286.996094 C 217.292969 286.996094 218.054688 287.0625 218.816406 287.195312 C 219.574219 287.328125 220.316406 287.527344 221.042969 287.785156 C 221.769531 288.046875 222.464844 288.367188 223.136719 288.746094 C 223.804688 289.125 224.4375 289.5625 225.035156 290.050781 C 225.628906 290.539062 226.179688 291.074219 226.683594 291.660156 C 227.1875 292.242188 227.636719 292.863281 228.035156 293.523438 C 228.429688 294.1875 228.769531 294.875 229.046875 295.59375 C 229.324219 296.3125 229.539062 297.050781 229.691406 297.804688 L 89.285156 297.804688 C 89.4375 297.050781 89.65625 296.3125 89.933594 295.59375 C 90.214844 294.875 90.554688 294.1875 90.953125 293.527344 C 91.351562 292.867188 91.800781 292.246094 92.308594 291.660156 C 92.8125 291.078125 93.363281 290.542969 93.957031 290.054688 C 94.554688 289.566406 95.1875 289.128906 95.859375 288.75 C 96.53125 288.371094 97.230469 288.050781 97.957031 287.789062 C 98.679688 287.527344 99.421875 287.332031 100.183594 287.199219 C 100.941406 287.066406 101.707031 286.996094 102.480469 286.996094 Z M 120.988281 276.625 L 127.679688 264.105469 L 191.21875 264.105469 L 198.011719 276.753906 Z M 271.039062 239.761719 C 271.039062 240.683594 270.945312 241.597656 270.765625 242.503906 C 270.582031 243.410156 270.316406 244.289062 269.960938 245.144531 C 269.605469 245.996094 269.171875 246.808594 268.660156 247.574219 C 268.144531 248.34375 267.5625 249.054688 266.910156 249.707031 C 266.257812 250.359375 265.546875 250.945312 264.777344 251.457031 C 264.007812 251.972656 263.199219 252.40625 262.347656 252.757812 C 261.492188 253.113281 260.613281 253.382812 259.707031 253.5625 C 258.800781 253.746094 257.886719 253.835938 256.964844 253.835938 L 62.0625 253.835938 C 61.136719 253.839844 60.21875 253.75 59.3125 253.570312 C 58.402344 253.394531 57.519531 253.128906 56.664062 252.773438 C 55.808594 252.421875 54.996094 251.988281 54.222656 251.476562 C 53.453125 250.960938 52.738281 250.378906 52.082031 249.726562 C 51.425781 249.070312 50.839844 248.359375 50.324219 247.589844 C 49.808594 246.824219 49.375 246.011719 49.019531 245.15625 C 48.660156 244.300781 48.394531 243.417969 48.210938 242.511719 C 48.027344 241.605469 47.9375 240.6875 47.933594 239.761719 L 47.933594 232.449219 L 271.039062 232.449219 Z M 271.039062 239.761719 " fill-opacity="1" fill-rule="nonzero"/></g><path fill="#0049a7" d="M 158.425781 249.457031 C 158.835938 249.457031 159.246094 249.417969 159.652344 249.335938 C 160.058594 249.253906 160.453125 249.136719 160.835938 248.976562 C 161.21875 248.820312 161.582031 248.625 161.925781 248.394531 C 162.269531 248.164062 162.585938 247.902344 162.878906 247.613281 C 163.171875 247.320312 163.433594 247 163.664062 246.65625 C 163.890625 246.3125 164.085938 245.949219 164.246094 245.566406 C 164.402344 245.1875 164.523438 244.792969 164.601562 244.386719 C 164.683594 243.980469 164.722656 243.570312 164.722656 243.15625 C 164.722656 242.742188 164.683594 242.332031 164.601562 241.929688 C 164.523438 241.523438 164.402344 241.128906 164.246094 240.746094 C 164.085938 240.363281 163.890625 240 163.664062 239.65625 C 163.433594 239.3125 163.171875 238.996094 162.878906 238.703125 C 162.585938 238.410156 162.269531 238.148438 161.925781 237.917969 C 161.582031 237.6875 161.21875 237.496094 160.835938 237.335938 C 160.453125 237.179688 160.058594 237.058594 159.652344 236.976562 C 159.246094 236.898438 158.835938 236.855469 158.425781 236.855469 C 158.011719 236.855469 157.601562 236.898438 157.195312 236.976562 C 156.789062 237.058594 156.394531 237.179688 156.011719 237.335938 C 155.632812 237.496094 155.269531 237.6875 154.925781 237.917969 C 154.582031 238.148438 154.261719 238.410156 153.96875 238.703125 C 153.675781 238.996094 153.417969 239.3125 153.1875 239.65625 C 152.957031 240 152.761719 240.363281 152.605469 240.746094 C 152.445312 241.128906 152.328125 241.523438 152.246094 241.929688 C 152.164062 242.332031 152.125 242.742188 152.125 243.15625 C 152.125 243.570312 152.164062 243.980469 152.246094 244.386719 C 152.328125 244.792969 152.445312 245.1875 152.605469 245.566406 C 152.761719 245.949219 152.957031 246.3125 153.1875 246.65625 C 153.417969 247 153.675781 247.320312 153.96875 247.613281 C 154.261719 247.902344 154.582031 248.164062 154.925781 248.394531 C 155.269531 248.625 155.632812 248.820312 156.011719 248.976562 C 156.394531 249.136719 156.789062 249.253906 157.195312 249.335938 C 157.601562 249.417969 158.011719 249.457031 158.425781 249.457031 Z M 158.425781 249.457031 " fill-opacity="1" fill-rule="nonzero"/><path fill="#0049a7" d="M 66.523438 125.382812 C 66.183594 125.382812 65.84375 125.414062 65.511719 125.480469 C 65.175781 125.546875 64.851562 125.648438 64.539062 125.777344 C 64.222656 125.90625 63.925781 126.066406 63.640625 126.257812 C 63.359375 126.445312 63.097656 126.660156 62.855469 126.902344 C 62.613281 127.140625 62.398438 127.402344 62.210938 127.6875 C 62.023438 127.96875 61.863281 128.269531 61.730469 128.582031 C 61.601562 128.898438 61.503906 129.222656 61.4375 129.554688 C 61.371094 129.890625 61.335938 130.226562 61.335938 130.566406 L 61.335938 204.398438 C 61.335938 204.742188 61.371094 205.078125 61.4375 205.410156 C 61.503906 205.746094 61.601562 206.070312 61.730469 206.382812 C 61.863281 206.699219 62.023438 206.996094 62.210938 207.28125 C 62.398438 207.5625 62.613281 207.824219 62.855469 208.066406 C 63.097656 208.308594 63.359375 208.523438 63.640625 208.710938 C 63.925781 208.898438 64.222656 209.058594 64.539062 209.191406 C 64.851562 209.320312 65.175781 209.417969 65.511719 209.484375 C 65.84375 209.550781 66.183594 209.585938 66.523438 209.585938 L 187.640625 209.585938 C 187.980469 209.585938 188.320312 209.550781 188.652344 209.484375 C 188.988281 209.417969 189.3125 209.320312 189.625 209.191406 C 189.941406 209.058594 190.238281 208.898438 190.523438 208.710938 C 190.804688 208.523438 191.066406 208.308594 191.308594 208.066406 C 191.546875 207.824219 191.761719 207.5625 191.953125 207.28125 C 192.140625 206.996094 192.300781 206.699219 192.429688 206.382812 C 192.5625 206.070312 192.660156 205.746094 192.726562 205.410156 C 192.792969 205.078125 192.824219 204.742188 192.824219 204.398438 C 192.824219 204.058594 192.792969 203.722656 192.726562 203.386719 C 192.660156 203.054688 192.5625 202.730469 192.429688 202.414062 C 192.300781 202.101562 192.140625 201.800781 191.953125 201.519531 C 191.761719 201.234375 191.546875 200.972656 191.308594 200.734375 C 191.066406 200.492188 190.804688 200.277344 190.523438 200.089844 C 190.238281 199.898438 189.941406 199.738281 189.625 199.609375 C 189.3125 199.480469 188.988281 199.382812 188.652344 199.316406 C 188.320312 199.25 187.980469 199.214844 187.640625 199.214844 L 174.964844 199.214844 L 174.964844 130.566406 C 174.964844 130.226562 174.929688 129.890625 174.863281 129.554688 C 174.796875 129.222656 174.699219 128.898438 174.570312 128.582031 C 174.4375 128.269531 174.28125 127.96875 174.089844 127.6875 C 173.902344 127.402344 173.6875 127.140625 173.445312 126.902344 C 173.203125 126.660156 172.941406 126.445312 172.660156 126.257812 C 172.375 126.066406 172.078125 125.90625 171.761719 125.777344 C 171.449219 125.648438 171.125 125.546875 170.789062 125.480469 C 170.457031 125.414062 170.121094 125.382812 169.777344 125.382812 L 152.488281 125.382812 C 152.148438 125.382812 151.808594 125.414062 151.476562 125.480469 C 151.140625 125.546875 150.816406 125.648438 150.503906 125.777344 C 150.1875 125.90625 149.890625 126.066406 149.605469 126.257812 C 149.324219 126.445312 149.0625 126.660156 148.820312 126.902344 C 148.582031 127.140625 148.367188 127.402344 148.175781 127.6875 C 147.988281 127.96875 147.828125 128.269531 147.699219 128.582031 C 147.566406 128.898438 147.46875 129.222656 147.402344 129.554688 C 147.335938 129.890625 147.300781 130.226562 147.300781 130.566406 L 147.300781 199.214844 L 141.390625 199.214844 L 141.390625 156.828125 C 141.390625 156.488281 141.359375 156.152344 141.292969 155.816406 C 141.226562 155.484375 141.128906 155.160156 140.996094 154.84375 C 140.867188 154.53125 140.707031 154.230469 140.519531 153.949219 C 140.328125 153.664062 140.113281 153.402344 139.875 153.164062 C 139.632812 152.921875 139.371094 152.707031 139.085938 152.515625 C 138.804688 152.328125 138.503906 152.167969 138.191406 152.039062 C 137.875 151.90625 137.550781 151.808594 137.21875 151.742188 C 136.882812 151.675781 136.546875 151.644531 136.207031 151.644531 L 118.914062 151.644531 C 118.574219 151.644531 118.238281 151.675781 117.902344 151.742188 C 117.570312 151.808594 117.246094 151.90625 116.929688 152.039062 C 116.617188 152.167969 116.316406 152.328125 116.035156 152.515625 C 115.75 152.707031 115.488281 152.921875 115.25 153.164062 C 115.007812 153.402344 114.792969 153.664062 114.605469 153.949219 C 114.414062 154.230469 114.253906 154.53125 114.125 154.84375 C 113.996094 155.160156 113.898438 155.484375 113.832031 155.816406 C 113.765625 156.152344 113.730469 156.488281 113.730469 156.828125 L 113.730469 199.214844 L 107.820312 199.214844 L 107.820312 176.558594 C 107.820312 176.214844 107.785156 175.878906 107.71875 175.546875 C 107.652344 175.210938 107.554688 174.886719 107.425781 174.574219 C 107.292969 174.257812 107.136719 173.960938 106.945312 173.675781 C 106.757812 173.394531 106.542969 173.132812 106.300781 172.890625 C 106.058594 172.648438 105.796875 172.433594 105.515625 172.246094 C 105.230469 172.058594 104.933594 171.898438 104.617188 171.765625 C 104.304688 171.636719 103.980469 171.539062 103.644531 171.472656 C 103.3125 171.40625 102.976562 171.371094 102.636719 171.371094 L 85.34375 171.371094 C 85.003906 171.371094 84.664062 171.40625 84.332031 171.472656 C 83.996094 171.539062 83.671875 171.636719 83.359375 171.765625 C 83.042969 171.898438 82.746094 172.058594 82.460938 172.246094 C 82.179688 172.433594 81.917969 172.648438 81.675781 172.890625 C 81.4375 173.132812 81.222656 173.394531 81.03125 173.675781 C 80.84375 173.960938 80.683594 174.257812 80.554688 174.574219 C 80.421875 174.886719 80.324219 175.210938 80.257812 175.546875 C 80.191406 175.878906 80.160156 176.214844 80.160156 176.558594 L 80.160156 199.214844 L 71.707031 199.214844 L 71.707031 130.566406 C 71.707031 130.226562 71.671875 129.890625 71.605469 129.554688 C 71.539062 129.222656 71.441406 128.898438 71.3125 128.582031 C 71.183594 128.269531 71.023438 127.96875 70.832031 127.6875 C 70.644531 127.402344 70.429688 127.140625 70.1875 126.902344 C 69.949219 126.660156 69.6875 126.445312 69.402344 126.257812 C 69.121094 126.066406 68.820312 125.90625 68.507812 125.777344 C 68.191406 125.648438 67.867188 125.546875 67.535156 125.480469 C 67.199219 125.414062 66.863281 125.382812 66.523438 125.382812 Z M 157.671875 135.753906 L 164.59375 135.753906 L 164.59375 199.214844 L 157.671875 199.214844 Z M 124.101562 162.011719 L 131.023438 162.011719 L 131.023438 199.214844 L 124.101562 199.214844 Z M 90.398438 181.742188 L 97.320312 181.742188 L 97.320312 199.214844 L 90.527344 199.214844 Z M 90.398438 181.742188 " fill-opacity="1" fill-rule="nonzero"/><path fill="#0049a7" d="M 227.355469 96.140625 C 226.203125 96.859375 225.089844 97.636719 224.011719 98.46875 C 222.9375 99.300781 221.902344 100.179688 220.914062 101.113281 C 219.921875 102.046875 218.980469 103.027344 218.085938 104.050781 C 217.191406 105.074219 216.351562 106.144531 215.5625 107.25 C 214.773438 108.359375 214.042969 109.503906 213.367188 110.683594 C 212.6875 111.863281 212.074219 113.074219 211.515625 114.316406 C 210.957031 115.554688 210.464844 116.820312 210.03125 118.109375 C 209.597656 119.398438 209.230469 120.707031 208.925781 122.035156 C 208.621094 123.359375 208.382812 124.695312 208.210938 126.046875 C 208.039062 127.394531 207.933594 128.75 207.894531 130.109375 C 207.855469 131.46875 207.882812 132.828125 207.976562 134.183594 C 208.070312 135.539062 208.230469 136.890625 208.457031 138.230469 C 208.683594 139.570312 208.976562 140.898438 209.335938 142.210938 C 209.691406 143.523438 210.113281 144.816406 210.597656 146.085938 C 211.082031 147.355469 211.628906 148.601562 212.238281 149.816406 C 212.84375 151.035156 213.507812 152.21875 214.234375 153.371094 C 214.957031 154.523438 215.734375 155.636719 216.566406 156.710938 C 217.402344 157.785156 218.285156 158.820312 219.21875 159.808594 C 220.152344 160.796875 221.132812 161.734375 222.160156 162.625 C 223.1875 163.519531 224.257812 164.359375 225.367188 165.144531 C 226.476562 165.929688 227.621094 166.660156 228.804688 167.335938 C 229.984375 168.007812 231.195312 168.625 232.4375 169.179688 C 233.679688 169.734375 234.945312 170.226562 236.238281 170.65625 C 237.527344 171.085938 238.835938 171.453125 240.164062 171.753906 C 241.488281 172.054688 242.828125 172.289062 244.175781 172.460938 C 245.527344 172.628906 246.878906 172.734375 248.238281 172.769531 C 249.601562 172.804688 250.957031 172.777344 252.316406 172.679688 C 253.671875 172.582031 255.019531 172.417969 256.359375 172.1875 C 257.703125 171.957031 259.027344 171.664062 260.339844 171.304688 C 261.652344 170.941406 262.941406 170.519531 264.210938 170.03125 C 265.480469 169.546875 266.722656 168.996094 267.941406 168.386719 C 269.15625 167.777344 270.339844 167.109375 271.488281 166.382812 C 272.640625 165.660156 273.753906 164.878906 274.824219 164.042969 C 275.898438 163.207031 276.929688 162.320312 277.914062 161.386719 C 278.902344 160.449219 279.839844 159.464844 280.730469 158.4375 C 281.621094 157.40625 282.457031 156.339844 283.242188 155.226562 C 284.023438 154.117188 284.753906 152.96875 285.425781 151.785156 C 286.097656 150.601562 286.707031 149.390625 287.261719 148.148438 C 287.8125 146.902344 288.304688 145.636719 288.730469 144.347656 C 289.160156 143.054688 289.523438 141.746094 289.820312 140.417969 C 290.121094 139.089844 290.351562 137.753906 290.519531 136.402344 C 290.6875 135.054688 290.789062 133.699219 290.820312 132.339844 C 290.855469 130.980469 290.820312 129.621094 290.722656 128.265625 C 290.621094 126.90625 290.457031 125.558594 290.222656 124.21875 C 289.992188 122.878906 289.695312 121.554688 289.332031 120.242188 C 288.96875 118.933594 288.542969 117.640625 288.054688 116.371094 C 287.5625 115.105469 287.011719 113.863281 286.402344 112.648438 C 285.789062 111.433594 285.117188 110.25 284.390625 109.101562 C 283.667969 107.957031 282.886719 106.851562 282.054688 105.785156 C 281.222656 104.71875 280.339844 103.695312 279.40625 102.714844 C 278.472656 101.734375 277.496094 100.800781 276.472656 99.917969 C 275.449219 99.03125 274.382812 98.199219 273.277344 97.417969 C 272.171875 96.636719 271.03125 95.914062 269.855469 95.246094 C 268.675781 94.578125 267.46875 93.964844 266.234375 93.414062 C 264.996094 92.863281 263.738281 92.375 262.453125 91.949219 C 261.167969 91.519531 259.867188 91.15625 258.546875 90.859375 C 257.226562 90.558594 255.898438 90.324219 254.554688 90.152344 C 253.210938 89.984375 251.863281 89.878906 250.511719 89.84375 C 249.15625 89.804688 247.804688 89.832031 246.457031 89.925781 C 245.105469 90.023438 243.761719 90.183594 242.429688 90.410156 C 241.09375 90.632812 239.773438 90.925781 238.46875 91.28125 C 237.164062 91.636719 235.878906 92.054688 234.613281 92.535156 C 233.347656 93.015625 232.109375 93.558594 230.894531 94.160156 C 229.683594 94.761719 228.503906 95.421875 227.355469 96.140625 Z M 265.984375 157.503906 C 265.121094 158.046875 264.234375 158.542969 263.324219 159 C 262.410156 159.457031 261.480469 159.863281 260.527344 160.226562 C 259.574219 160.59375 258.605469 160.910156 257.625 161.175781 C 256.640625 161.445312 255.648438 161.664062 254.640625 161.835938 C 253.636719 162.007812 252.625 162.128906 251.609375 162.199219 C 250.59375 162.273438 249.574219 162.292969 248.554688 162.265625 C 247.539062 162.238281 246.523438 162.160156 245.511719 162.03125 C 244.5 161.902344 243.5 161.726562 242.503906 161.5 C 241.511719 161.273438 240.53125 160.996094 239.5625 160.675781 C 238.597656 160.351562 237.648438 159.980469 236.71875 159.566406 C 235.789062 159.148438 234.878906 158.6875 233.996094 158.183594 C 233.109375 157.675781 232.253906 157.128906 231.421875 156.539062 C 230.589844 155.949219 229.789062 155.320312 229.019531 154.652344 C 228.25 153.984375 227.515625 153.28125 226.816406 152.539062 C 226.117188 151.796875 225.453125 151.023438 224.828125 150.21875 C 224.203125 149.414062 223.621094 148.578125 223.078125 147.714844 C 222.539062 146.851562 222.039062 145.964844 221.585938 145.054688 C 221.128906 144.140625 220.71875 143.207031 220.355469 142.257812 C 219.992188 141.304688 219.675781 140.335938 219.410156 139.351562 C 219.140625 138.371094 218.921875 137.375 218.75 136.371094 C 218.582031 135.367188 218.460938 134.355469 218.390625 133.339844 C 218.316406 132.320312 218.296875 131.304688 218.324219 130.285156 C 218.355469 129.265625 218.433594 128.25 218.5625 127.242188 C 218.691406 126.230469 218.867188 125.226562 219.097656 124.234375 C 219.324219 123.238281 219.597656 122.261719 219.921875 121.292969 C 220.246094 120.328125 220.617188 119.378906 221.03125 118.449219 C 221.449219 117.519531 221.910156 116.609375 222.417969 115.726562 C 222.921875 114.839844 223.472656 113.984375 224.0625 113.152344 C 224.652344 112.320312 225.28125 111.523438 225.949219 110.753906 C 226.617188 109.984375 227.324219 109.25 228.066406 108.550781 C 228.804688 107.851562 229.578125 107.1875 230.386719 106.5625 C 231.191406 105.941406 232.027344 105.359375 232.890625 104.816406 C 233.753906 104.273438 234.640625 103.777344 235.554688 103.320312 C 236.464844 102.867188 237.398438 102.457031 238.351562 102.097656 C 239.304688 101.734375 240.269531 101.417969 241.253906 101.152344 C 242.238281 100.882812 243.230469 100.664062 244.238281 100.496094 C 245.242188 100.324219 246.253906 100.203125 247.269531 100.132812 C 248.285156 100.0625 249.304688 100.042969 250.324219 100.070312 C 251.339844 100.101562 252.355469 100.179688 253.367188 100.308594 C 254.378906 100.4375 255.378906 100.617188 256.375 100.84375 C 257.367188 101.074219 258.347656 101.347656 259.3125 101.671875 C 260.28125 101.996094 261.226562 102.367188 262.160156 102.785156 C 263.089844 103.203125 263.996094 103.664062 264.878906 104.171875 C 265.765625 104.675781 266.621094 105.226562 267.453125 105.816406 C 268.28125 106.40625 269.082031 107.039062 269.851562 107.707031 C 270.621094 108.375 271.355469 109.082031 272.054688 109.824219 C 272.753906 110.5625 273.414062 111.339844 274.039062 112.144531 C 274.660156 112.949219 275.242188 113.785156 275.785156 114.648438 C 276.324219 115.511719 276.820312 116.398438 277.273438 117.308594 C 277.726562 118.222656 278.136719 119.152344 278.5 120.105469 C 278.859375 121.054688 279.175781 122.023438 279.441406 123.003906 C 279.707031 123.984375 279.925781 124.980469 280.097656 125.984375 C 280.265625 126.984375 280.386719 127.996094 280.457031 129.011719 C 280.527344 130.027344 280.546875 131.042969 280.519531 132.058594 C 280.492188 133.078125 280.410156 134.089844 280.28125 135.101562 C 280.152344 136.109375 279.976562 137.109375 279.75 138.101562 C 279.523438 139.09375 279.246094 140.074219 278.925781 141.039062 C 278.601562 142.003906 278.230469 142.953125 277.816406 143.878906 C 277.402344 144.808594 276.941406 145.714844 276.433594 146.601562 C 275.929688 147.484375 275.382812 148.339844 274.792969 149.171875 C 274.207031 150 273.578125 150.800781 272.910156 151.566406 C 272.242188 152.335938 271.539062 153.070312 270.800781 153.769531 C 270.058594 154.46875 269.289062 155.132812 268.484375 155.753906 C 267.679688 156.378906 266.847656 156.960938 265.984375 157.503906 Z M 265.984375 157.503906 " fill-opacity="1" fill-rule="nonzero"/><path fill="#0049a7" d="M 329.757812 226.203125 L 303.835938 184.957031 C 303.652344 184.667969 303.445312 184.398438 303.210938 184.152344 C 302.976562 183.902344 302.722656 183.679688 302.445312 183.484375 C 302.167969 183.285156 301.871094 183.117188 301.5625 182.980469 C 301.25 182.839844 300.929688 182.730469 300.59375 182.65625 C 300.261719 182.582031 299.925781 182.539062 299.585938 182.527344 C 299.246094 182.519531 298.90625 182.542969 298.570312 182.601562 C 298.234375 182.65625 297.90625 182.746094 297.589844 182.867188 C 297.269531 182.988281 296.96875 183.140625 296.679688 183.324219 L 290.714844 187.109375 L 285.714844 179.148438 C 286.613281 178.46875 287.492188 177.761719 288.351562 177.03125 C 289.214844 176.300781 290.050781 175.542969 290.871094 174.765625 C 291.6875 173.988281 292.484375 173.1875 293.253906 172.363281 C 294.027344 171.539062 294.777344 170.695312 295.5 169.832031 C 296.226562 168.964844 296.925781 168.082031 297.601562 167.175781 C 298.277344 166.269531 298.925781 165.347656 299.546875 164.40625 C 300.171875 163.464844 300.765625 162.507812 301.335938 161.53125 C 301.90625 160.554688 302.445312 159.566406 302.957031 158.558594 C 303.472656 157.554688 303.957031 156.535156 304.410156 155.503906 C 304.867188 154.46875 305.292969 153.425781 305.691406 152.367188 C 306.085938 151.3125 306.453125 150.242188 306.789062 149.164062 C 307.125 148.089844 307.433594 147.003906 307.707031 145.90625 C 307.980469 144.8125 308.226562 143.710938 308.441406 142.601562 C 308.652344 141.492188 308.835938 140.378906 308.984375 139.261719 C 309.136719 138.140625 309.253906 137.019531 309.339844 135.894531 C 309.429688 134.769531 309.484375 133.640625 309.507812 132.511719 C 309.53125 131.382812 309.523438 130.257812 309.480469 129.128906 C 309.441406 128 309.371094 126.875 309.265625 125.75 C 309.164062 124.625 309.027344 123.503906 308.859375 122.386719 C 308.695312 121.273438 308.496094 120.160156 308.265625 119.054688 C 308.035156 117.949219 307.777344 116.851562 307.484375 115.761719 C 307.195312 114.671875 306.871094 113.589844 306.519531 112.515625 C 306.167969 111.445312 305.785156 110.382812 305.375 109.332031 C 304.960938 108.28125 304.519531 107.242188 304.050781 106.214844 C 303.578125 105.191406 303.078125 104.179688 302.550781 103.179688 C 302.023438 102.183594 301.46875 101.199219 300.882812 100.234375 C 300.300781 99.265625 299.691406 98.316406 299.054688 97.382812 C 298.417969 96.453125 297.753906 95.539062 297.066406 94.644531 C 296.378906 93.75 295.667969 92.875 294.929688 92.019531 C 294.191406 91.164062 293.429688 90.332031 292.644531 89.519531 C 291.863281 88.707031 291.054688 87.917969 290.226562 87.152344 C 289.398438 86.386719 288.546875 85.644531 287.675781 84.925781 C 286.804688 84.207031 285.914062 83.515625 285.003906 82.847656 C 284.09375 82.179688 283.167969 81.535156 282.222656 80.921875 C 281.273438 80.304688 280.3125 79.714844 279.332031 79.152344 C 278.351562 78.59375 277.359375 78.058594 276.347656 77.554688 C 275.339844 77.046875 274.316406 76.570312 273.28125 76.125 C 272.246094 75.675781 271.195312 75.257812 270.136719 74.867188 C 269.078125 74.480469 268.007812 74.121094 266.925781 73.792969 C 265.847656 73.464844 264.757812 73.167969 263.660156 72.898438 C 262.566406 72.632812 261.460938 72.398438 260.351562 72.191406 C 259.242188 71.988281 258.125 71.8125 257.003906 71.671875 C 255.886719 71.53125 254.761719 71.417969 253.636719 71.339844 C 252.511719 71.261719 251.382812 71.214844 250.253906 71.199219 C 249.125 71.183594 247.996094 71.203125 246.871094 71.25 C 245.742188 71.300781 244.617188 71.378906 243.492188 71.492188 C 242.367188 71.605469 241.25 71.746094 240.132812 71.921875 C 239.019531 72.097656 237.910156 72.304688 236.804688 72.542969 C 235.703125 72.777344 234.605469 73.046875 233.519531 73.347656 C 232.429688 73.648438 231.351562 73.976562 230.28125 74.335938 C 229.210938 74.695312 228.152344 75.085938 227.105469 75.507812 C 226.054688 75.925781 225.019531 76.375 224 76.855469 C 222.976562 77.332031 221.96875 77.839844 220.972656 78.375 C 219.980469 78.910156 219 79.472656 218.039062 80.0625 C 217.078125 80.652344 216.132812 81.269531 215.207031 81.914062 C 214.277344 82.558594 213.371094 83.226562 212.480469 83.921875 C 211.589844 84.617188 210.71875 85.335938 209.871094 86.082031 C 209.023438 86.824219 208.195312 87.59375 207.390625 88.382812 C 206.582031 89.171875 205.800781 89.984375 205.039062 90.820312 C 204.28125 91.65625 203.542969 92.511719 202.832031 93.386719 C 202.121094 94.261719 201.433594 95.160156 200.773438 96.074219 C 200.109375 96.988281 199.476562 97.921875 198.867188 98.871094 C 198.257812 99.824219 197.675781 100.789062 197.121094 101.773438 C 196.570312 102.757812 196.042969 103.753906 195.542969 104.769531 C 195.046875 105.78125 194.578125 106.808594 194.136719 107.847656 C 193.699219 108.886719 193.285156 109.9375 192.90625 111 C 192.527344 112.0625 192.175781 113.136719 191.855469 114.21875 C 191.535156 115.300781 191.246094 116.390625 190.984375 117.492188 C 190.726562 118.589844 190.5 119.695312 190.304688 120.804688 C 190.105469 121.917969 189.941406 123.035156 189.808594 124.15625 C 189.675781 125.277344 189.574219 126.398438 189.503906 127.527344 C 189.433594 128.652344 189.394531 129.78125 189.386719 130.910156 C 189.378906 132.039062 189.40625 133.167969 189.460938 134.292969 C 189.519531 135.421875 189.609375 136.546875 189.730469 137.667969 C 189.847656 138.792969 190 139.910156 190.183594 141.023438 C 190.367188 142.136719 190.582031 143.246094 190.828125 144.347656 C 191.074219 145.449219 191.351562 146.542969 191.660156 147.628906 C 191.964844 148.714844 192.304688 149.792969 192.671875 150.859375 C 193.042969 151.925781 193.4375 152.984375 193.867188 154.027344 C 194.296875 155.070312 194.753906 156.105469 195.238281 157.121094 C 195.722656 158.140625 196.238281 159.144531 196.78125 160.136719 C 197.324219 161.125 197.894531 162.101562 198.492188 163.058594 C 199.089844 164.015625 199.714844 164.957031 200.363281 165.878906 C 201.015625 166.800781 201.691406 167.703125 202.390625 168.589844 C 203.09375 169.472656 203.820312 170.335938 204.570312 171.179688 C 205.320312 172.023438 206.09375 172.847656 206.890625 173.644531 C 207.6875 174.445312 208.503906 175.222656 209.34375 175.976562 C 210.183594 176.730469 211.046875 177.460938 211.929688 178.164062 C 212.808594 178.871094 213.710938 179.550781 214.628906 180.203125 C 215.550781 180.859375 216.488281 181.488281 217.441406 182.089844 C 218.398438 182.691406 219.367188 183.265625 220.355469 183.8125 C 221.34375 184.359375 222.347656 184.875 223.363281 185.367188 C 224.378906 185.859375 225.410156 186.320312 226.453125 186.75 C 227.496094 187.183594 228.550781 187.585938 229.617188 187.957031 C 230.679688 188.332031 231.757812 188.675781 232.839844 188.984375 C 233.925781 189.296875 235.019531 189.578125 236.121094 189.832031 C 240.539062 190.832031 245.015625 191.332031 249.546875 191.335938 C 254.316406 191.332031 259.019531 190.765625 263.652344 189.632812 C 268.285156 188.503906 272.71875 186.839844 276.949219 184.644531 L 281.929688 192.578125 L 276.015625 196.285156 C 275.730469 196.46875 275.460938 196.675781 275.214844 196.910156 C 274.96875 197.144531 274.746094 197.402344 274.550781 197.679688 C 274.355469 197.957031 274.1875 198.253906 274.050781 198.566406 C 273.914062 198.875 273.804688 199.199219 273.730469 199.53125 C 273.65625 199.863281 273.617188 200.199219 273.605469 200.539062 C 273.597656 200.878906 273.625 201.21875 273.683594 201.554688 C 273.738281 201.886719 273.832031 202.214844 273.953125 202.53125 C 274.074219 202.851562 274.226562 203.152344 274.410156 203.441406 L 300.335938 244.710938 C 301.554688 246.683594 303.105469 248.339844 304.988281 249.6875 C 306.871094 251.039062 308.941406 251.972656 311.195312 252.488281 C 312.46875 252.777344 313.757812 252.925781 315.058594 252.929688 C 316.609375 252.929688 318.136719 252.722656 319.632812 252.3125 C 321.128906 251.902344 322.542969 251.300781 323.878906 250.511719 C 325.214844 249.71875 326.421875 248.769531 327.503906 247.652344 C 328.582031 246.539062 329.496094 245.304688 330.246094 243.945312 C 330.996094 242.585938 331.550781 241.152344 331.917969 239.644531 C 332.28125 238.136719 332.441406 236.605469 332.398438 235.054688 C 332.351562 233.503906 332.101562 231.988281 331.652344 230.503906 C 331.199219 229.019531 330.558594 227.621094 329.734375 226.304688 Z M 275.941406 173.316406 C 275.128906 173.828125 274.300781 174.316406 273.460938 174.777344 C 272.621094 175.242188 271.769531 175.679688 270.902344 176.09375 C 270.039062 176.507812 269.160156 176.898438 268.273438 177.261719 C 267.386719 177.625 266.488281 177.960938 265.582031 178.273438 C 264.671875 178.582031 263.757812 178.867188 262.832031 179.125 C 261.910156 179.382812 260.980469 179.617188 260.042969 179.820312 C 259.105469 180.023438 258.160156 180.203125 257.214844 180.351562 C 256.265625 180.503906 255.316406 180.625 254.359375 180.71875 C 253.40625 180.816406 252.449219 180.882812 251.492188 180.921875 C 250.53125 180.960938 249.574219 180.972656 248.613281 180.957031 C 247.65625 180.941406 246.695312 180.898438 245.742188 180.828125 C 244.785156 180.753906 243.828125 180.65625 242.878906 180.53125 C 241.925781 180.402344 240.980469 180.25 240.039062 180.070312 C 239.097656 179.886719 238.160156 179.679688 237.230469 179.445312 C 236.300781 179.207031 235.378906 178.945312 234.464844 178.65625 C 233.546875 178.367188 232.644531 178.054688 231.746094 177.710938 C 230.847656 177.371094 229.964844 177.003906 229.089844 176.613281 C 228.210938 176.21875 227.347656 175.800781 226.496094 175.359375 C 225.648438 174.917969 224.808594 174.453125 223.984375 173.960938 C 223.160156 173.46875 222.351562 172.957031 221.554688 172.417969 C 220.761719 171.878906 219.984375 171.320312 219.222656 170.738281 C 218.457031 170.15625 217.714844 169.550781 216.988281 168.925781 C 216.261719 168.300781 215.550781 167.652344 214.863281 166.984375 C 214.171875 166.320312 213.5 165.632812 212.851562 164.925781 C 212.203125 164.222656 211.574219 163.5 210.964844 162.757812 C 210.355469 162.015625 209.769531 161.253906 209.207031 160.480469 C 208.640625 159.703125 208.097656 158.914062 207.582031 158.105469 C 207.0625 157.296875 206.566406 156.476562 206.097656 155.640625 C 205.625 154.804688 205.179688 153.957031 204.757812 153.09375 C 204.335938 152.234375 203.9375 151.359375 203.566406 150.476562 C 203.195312 149.589844 202.851562 148.695312 202.53125 147.792969 C 202.210938 146.886719 201.917969 145.976562 201.652344 145.054688 C 201.382812 144.132812 201.144531 143.203125 200.929688 142.269531 C 200.71875 141.332031 200.53125 140.390625 200.371094 139.445312 C 200.214844 138.5 200.082031 137.550781 199.980469 136.597656 C 199.875 135.640625 199.800781 134.6875 199.75 133.726562 C 199.703125 132.769531 199.679688 131.8125 199.6875 130.851562 C 199.695312 129.890625 199.730469 128.933594 199.792969 127.976562 C 199.855469 127.019531 199.945312 126.066406 200.0625 125.113281 C 200.179688 124.160156 200.324219 123.210938 200.5 122.269531 C 200.671875 121.324219 200.871094 120.386719 201.097656 119.453125 C 201.324219 118.523438 201.578125 117.597656 201.859375 116.679688 C 202.136719 115.761719 202.445312 114.855469 202.777344 113.953125 C 203.109375 113.054688 203.46875 112.164062 203.851562 111.285156 C 204.238281 110.40625 204.648438 109.539062 205.082031 108.683594 C 205.515625 107.828125 205.976562 106.988281 206.457031 106.160156 C 206.941406 105.328125 207.449219 104.515625 207.976562 103.714844 C 208.507812 102.917969 209.0625 102.132812 209.636719 101.367188 C 210.210938 100.597656 210.808594 99.847656 211.429688 99.113281 C 212.046875 98.382812 212.6875 97.667969 213.347656 96.972656 C 214.007812 96.277344 214.6875 95.597656 215.386719 94.941406 C 216.085938 94.285156 216.804688 93.652344 217.542969 93.035156 C 218.277344 92.421875 219.03125 91.828125 219.800781 91.253906 C 220.574219 90.683594 221.359375 90.136719 222.160156 89.609375 C 222.964844 89.082031 223.78125 88.582031 224.613281 88.101562 C 225.441406 87.625 226.289062 87.167969 227.144531 86.738281 C 228.003906 86.308594 228.871094 85.90625 229.753906 85.527344 C 230.632812 85.144531 231.527344 84.792969 232.425781 84.464844 C 233.328125 84.136719 234.238281 83.835938 235.160156 83.558594 C 236.078125 83.285156 237.003906 83.035156 237.9375 82.8125 C 238.871094 82.589844 239.808594 82.398438 240.753906 82.230469 C 241.699219 82.0625 242.648438 81.921875 243.601562 81.808594 C 244.554688 81.695312 245.507812 81.613281 246.464844 81.554688 C 247.421875 81.496094 248.382812 81.46875 249.339844 81.464844 C 253.09375 81.46875 256.800781 81.886719 260.460938 82.710938 C 262.855469 83.246094 265.195312 83.957031 267.484375 84.839844 C 269.773438 85.722656 271.984375 86.769531 274.117188 87.976562 C 276.25 89.1875 278.285156 90.546875 280.214844 92.058594 C 282.148438 93.566406 283.960938 95.210938 285.648438 96.988281 C 287.339844 98.765625 288.890625 100.660156 290.296875 102.664062 C 291.707031 104.671875 292.964844 106.773438 294.0625 108.964844 C 295.160156 111.15625 296.09375 113.417969 296.859375 115.746094 C 297.625 118.078125 298.214844 120.453125 298.628906 122.867188 C 299.042969 125.285156 299.277344 127.722656 299.332031 130.171875 C 299.386719 132.625 299.261719 135.066406 298.953125 137.5 C 298.648438 139.933594 298.164062 142.332031 297.503906 144.691406 C 296.84375 147.054688 296.011719 149.355469 295.011719 151.59375 C 294.007812 153.832031 292.847656 155.988281 291.53125 158.054688 C 290.210938 160.121094 288.746094 162.082031 287.136719 163.929688 C 285.527344 165.78125 283.792969 167.503906 281.929688 169.101562 C 280.066406 170.695312 278.09375 172.144531 276.015625 173.445312 Z M 321.878906 237.011719 C 321.675781 237.917969 321.308594 238.746094 320.773438 239.5 C 320.238281 240.257812 319.578125 240.878906 318.792969 241.367188 C 318.402344 241.613281 317.996094 241.816406 317.566406 241.980469 C 317.136719 242.144531 316.695312 242.261719 316.242188 242.339844 C 315.789062 242.417969 315.332031 242.449219 314.875 242.433594 C 314.414062 242.421875 313.960938 242.363281 313.515625 242.261719 C 313.066406 242.160156 312.632812 242.015625 312.214844 241.828125 C 311.796875 241.640625 311.398438 241.414062 311.023438 241.148438 C 310.648438 240.882812 310.304688 240.582031 309.988281 240.25 C 309.671875 239.914062 309.394531 239.554688 309.148438 239.164062 L 285.816406 202.300781 L 297.769531 194.886719 L 321.101562 231.75 C 321.570312 232.542969 321.875 233.394531 322.007812 234.304688 C 322.144531 235.214844 322.097656 236.117188 321.878906 237.011719 Z M 321.878906 237.011719 " fill-opacity="1" fill-rule="nonzero"/></svg>