<svg xmlns="http://www.w3.org/2000/svg" xmlns:xlink="http://www.w3.org/1999/xlink" width="500" zoomAndPan="magnify" viewBox="0 0 375 374.999991" height="500" preserveAspectRatio="xMidYMid meet" version="1.0"><defs><clipPath id="89fa565768"><path d="M 57.203125 54 L 317.453125 54 L 317.453125 321 L 57.203125 321 Z M 57.203125 54 " clip-rule="nonzero"/></clipPath></defs><g clip-path="url(#89fa565768)"><path fill="#0049a7" d="M 301.746094 143.894531 L 298.316406 128.21875 L 296.519531 128.828125 C 294.589844 129.5 292.757812 130.375 291.019531 131.453125 C 289.285156 132.53125 287.6875 133.785156 286.230469 135.214844 C 284.773438 136.648438 283.488281 138.222656 282.378906 139.9375 C 281.269531 141.652344 280.363281 143.46875 279.65625 145.386719 C 278.925781 147.667969 278.527344 150.003906 278.457031 152.398438 C 278.386719 154.792969 278.652344 157.148438 279.25 159.46875 L 277.28125 161.875 C 273.011719 158.34375 268.421875 155.296875 263.511719 152.738281 C 258.597656 150.175781 253.472656 148.15625 248.132812 146.675781 L 248.132812 110.117188 C 248.132812 98.140625 242.367188 92.304688 230.457031 92.304688 L 201.171875 92.304688 C 198.628906 81.785156 193.914062 78.222656 182.886719 78.222656 L 181.765625 78.1875 C 180.847656 78.144531 179.929688 78.167969 179.015625 78.257812 C 178.582031 78.351562 178.164062 78.304688 177.761719 78.121094 C 177.625 78.019531 177.421875 77.679688 177.320312 76.664062 C 177.167969 75.234375 176.890625 73.835938 176.492188 72.457031 C 176.09375 71.078125 175.578125 69.746094 174.945312 68.457031 C 174.316406 67.167969 173.578125 65.945312 172.730469 64.785156 C 171.886719 63.625 170.949219 62.550781 169.914062 61.554688 C 168.882812 60.558594 167.769531 59.660156 166.582031 58.859375 C 165.390625 58.054688 164.140625 57.363281 162.832031 56.78125 C 161.519531 56.199219 160.167969 55.730469 158.777344 55.382812 C 157.386719 55.035156 155.972656 54.8125 154.542969 54.710938 C 153.113281 54.609375 151.683594 54.632812 150.257812 54.78125 C 148.828125 54.929688 147.425781 55.199219 146.046875 55.59375 C 144.667969 55.984375 143.332031 56.496094 142.039062 57.121094 C 140.75 57.746094 139.523438 58.480469 138.359375 59.320312 C 137.199219 60.160156 136.117188 61.09375 135.117188 62.125 C 134.117188 63.152344 133.214844 64.261719 132.40625 65.445312 C 131.601562 66.632812 130.902344 67.878906 130.3125 69.1875 C 129.726562 70.496094 129.253906 71.84375 128.902344 73.234375 C 128.738281 73.90625 128.613281 74.585938 128.527344 75.269531 C 128.359375 76.355469 128.152344 77.816406 127.714844 78.121094 C 126.601562 78.507812 125.46875 78.574219 124.320312 78.324219 C 123.65625 78.191406 122.992188 78.15625 122.316406 78.222656 C 111.800781 78.222656 106.742188 82.191406 104.570312 92.304688 L 74.78125 92.304688 C 63.515625 92.316406 57.542969 98.308594 57.542969 109.675781 L 57.542969 303.707031 C 57.492188 304.273438 57.472656 304.835938 57.480469 305.402344 C 57.492188 305.96875 57.535156 306.53125 57.605469 307.09375 C 57.679688 307.65625 57.78125 308.210938 57.914062 308.761719 C 58.046875 309.3125 58.210938 309.851562 58.402344 310.386719 C 58.59375 310.917969 58.816406 311.4375 59.066406 311.945312 C 59.316406 312.453125 59.59375 312.949219 59.894531 313.425781 C 60.199219 313.902344 60.527344 314.363281 60.882812 314.804688 C 61.238281 315.246094 61.613281 315.667969 62.015625 316.066406 C 62.414062 316.46875 62.835938 316.84375 63.277344 317.199219 C 63.71875 317.554688 64.179688 317.882812 64.65625 318.1875 C 65.132812 318.488281 65.628906 318.765625 66.136719 319.015625 C 66.644531 319.265625 67.164062 319.488281 67.695312 319.679688 C 68.226562 319.871094 68.769531 320.035156 69.320312 320.167969 C 69.871094 320.300781 70.425781 320.402344 70.988281 320.476562 C 71.550781 320.546875 72.113281 320.589844 72.679688 320.601562 C 73.246094 320.609375 73.808594 320.589844 74.375 320.539062 L 230.828125 320.539062 C 242.164062 320.539062 248.167969 314.566406 248.167969 303.265625 L 248.167969 288.472656 C 249.964844 287.980469 251.742188 287.421875 253.496094 286.796875 C 255.25 286.167969 256.976562 285.476562 258.679688 284.714844 C 260.378906 283.957031 262.050781 283.136719 263.691406 282.25 C 265.328125 281.363281 266.933594 280.417969 268.5 279.410156 C 270.066406 278.402344 271.59375 277.335938 273.078125 276.210938 C 274.5625 275.085938 276.003906 273.910156 277.398438 272.675781 C 278.796875 271.441406 280.144531 270.15625 281.441406 268.820312 C 282.738281 267.484375 283.984375 266.097656 285.175781 264.667969 C 286.371094 263.234375 287.507812 261.761719 288.585938 260.242188 C 289.667969 258.726562 290.6875 257.167969 291.648438 255.574219 C 292.613281 253.976562 293.511719 252.347656 294.347656 250.683594 C 295.1875 249.019531 295.960938 247.324219 296.667969 245.601562 C 297.375 243.878906 298.019531 242.132812 298.59375 240.359375 C 299.167969 238.589844 299.675781 236.796875 300.117188 234.988281 C 300.554688 233.175781 300.925781 231.351562 301.226562 229.511719 C 301.527344 227.675781 301.753906 225.828125 301.914062 223.96875 C 302.335938 219.085938 302.285156 214.207031 301.753906 209.335938 C 301.222656 204.460938 300.226562 199.683594 298.761719 195.007812 C 297.300781 190.328125 295.398438 185.835938 293.054688 181.527344 C 290.714844 177.222656 287.976562 173.183594 284.847656 169.410156 L 286.882812 167.714844 C 289.675781 168.253906 292.484375 168.335938 295.304688 167.964844 C 298.125 167.59375 300.816406 166.785156 303.375 165.542969 C 305.054688 164.667969 306.625 163.628906 308.085938 162.425781 C 309.550781 161.222656 310.871094 159.882812 312.054688 158.40625 C 313.238281 156.925781 314.257812 155.34375 315.109375 153.652344 C 315.960938 151.960938 316.628906 150.203125 317.117188 148.371094 L 317.558594 146.574219 Z M 116.449219 104.484375 C 116.414062 101.125 116.414062 97.734375 116.449219 94.375 C 116.480469 91.21875 117.636719 90.097656 120.757812 90.03125 C 122.996094 89.964844 125.269531 89.996094 127.507812 89.996094 L 132.972656 89.996094 C 137.859375 89.929688 139.792969 87.960938 139.929688 83.042969 L 139.960938 81.617188 C 139.933594 80.355469 139.992188 79.101562 140.132812 77.851562 C 140.222656 77.082031 140.378906 76.328125 140.605469 75.589844 C 140.832031 74.851562 141.121094 74.140625 141.476562 73.453125 C 141.832031 72.765625 142.246094 72.117188 142.71875 71.507812 C 143.191406 70.894531 143.714844 70.332031 144.289062 69.8125 C 144.863281 69.296875 145.480469 68.835938 146.136719 68.433594 C 146.796875 68.027344 147.484375 67.683594 148.207031 67.402344 C 148.925781 67.121094 149.664062 66.910156 150.421875 66.761719 C 151.183594 66.617188 151.949219 66.539062 152.71875 66.53125 L 152.820312 66.53125 C 153.601562 66.53125 154.378906 66.601562 155.144531 66.742188 C 155.914062 66.882812 156.664062 67.09375 157.394531 67.371094 C 158.125 67.648438 158.820312 67.992188 159.488281 68.398438 C 160.15625 68.800781 160.78125 69.265625 161.367188 69.785156 C 161.949219 70.304688 162.480469 70.871094 162.960938 71.488281 C 163.4375 72.105469 163.859375 72.761719 164.21875 73.453125 C 164.578125 74.148438 164.875 74.867188 165.101562 75.613281 C 165.332031 76.359375 165.492188 77.121094 165.578125 77.898438 C 165.714844 79.085938 165.714844 80.273438 165.75 81.460938 C 165.75 82.242188 165.75 82.988281 165.785156 83.734375 C 165.746094 84.15625 165.757812 84.578125 165.8125 84.996094 C 165.867188 85.417969 165.96875 85.828125 166.113281 86.222656 C 166.261719 86.621094 166.449219 87 166.675781 87.355469 C 166.90625 87.710938 167.171875 88.039062 167.472656 88.335938 C 167.773438 88.636719 168.105469 88.898438 168.464844 89.121094 C 168.824219 89.347656 169.203125 89.53125 169.601562 89.671875 C 170 89.8125 170.410156 89.910156 170.832031 89.960938 C 171.25 90.011719 171.671875 90.019531 172.09375 89.976562 C 174.4375 90.046875 176.742188 90.011719 179.050781 90.011719 C 180.917969 90.011719 182.78125 90.011719 184.648438 90.046875 C 188.144531 90.078125 189.230469 91.164062 189.265625 94.726562 C 189.265625 98.699219 189.296875 102.667969 189.265625 106.636719 C 189.230469 109.960938 188.109375 111.117188 184.785156 111.117188 C 177.117188 111.148438 169.449219 111.117188 161.746094 111.117188 L 121.46875 111.117188 C 117.398438 111.117188 116.449219 110.132812 116.449219 105.957031 Z M 236.292969 303.558594 C 236.292969 307.699219 235.34375 308.683594 231.238281 308.683594 L 74.476562 308.683594 C 72.984375 308.875 71.628906 308.535156 70.402344 307.664062 C 69.535156 306.425781 69.199219 305.058594 69.386719 303.558594 L 69.417969 252.253906 C 69.453125 227.554688 69.464844 202.851562 69.453125 178.148438 C 69.453125 164.273438 69.441406 150.371094 69.417969 136.449219 L 69.417969 109.507812 C 69.304688 108.742188 69.332031 107.980469 69.5 107.226562 C 69.667969 106.472656 69.972656 105.773438 70.402344 105.128906 C 71.765625 104.257812 73.246094 103.929688 74.847656 104.148438 L 104.570312 104.148438 L 104.570312 104.585938 C 104.570312 105.707031 104.570312 106.757812 104.605469 107.8125 C 104.605469 108.800781 104.699219 109.777344 104.890625 110.746094 C 105.078125 111.714844 105.363281 112.65625 105.738281 113.570312 C 106.113281 114.484375 106.574219 115.351562 107.121094 116.175781 C 107.667969 117 108.289062 117.761719 108.984375 118.460938 C 109.679688 119.160156 110.4375 119.789062 111.257812 120.339844 C 112.074219 120.890625 112.941406 121.359375 113.851562 121.738281 C 114.761719 122.121094 115.703125 122.410156 116.671875 122.609375 C 117.636719 122.804688 118.617188 122.90625 119.605469 122.910156 C 141.148438 123.011719 163.511719 123.011719 186.074219 122.910156 C 187.0625 122.90625 188.042969 122.808594 189.011719 122.613281 C 189.980469 122.417969 190.921875 122.128906 191.835938 121.746094 C 192.75 121.367188 193.613281 120.902344 194.4375 120.347656 C 195.257812 119.796875 196.015625 119.171875 196.714844 118.472656 C 197.410156 117.769531 198.035156 117.007812 198.582031 116.183594 C 199.128906 115.359375 199.59375 114.492188 199.96875 113.578125 C 200.347656 112.664062 200.628906 111.71875 200.820312 110.75 C 201.011719 109.78125 201.105469 108.800781 201.105469 107.8125 C 201.140625 106.859375 201.105469 105.878906 201.105469 104.722656 L 201.105469 104.148438 L 230.183594 104.148438 C 235.679688 104.148438 236.292969 104.757812 236.292969 110.117188 L 236.292969 144.390625 C 233.734375 144.101562 231.167969 143.949219 228.59375 143.933594 C 226.019531 143.917969 223.453125 144.039062 220.890625 144.300781 C 218.328125 144.558594 215.789062 144.953125 213.269531 145.484375 C 210.75 146.015625 208.265625 146.675781 205.820312 147.472656 C 203.371094 148.269531 200.972656 149.191406 198.621094 150.246094 C 196.273438 151.296875 193.984375 152.472656 191.761719 153.765625 C 189.539062 155.0625 187.390625 156.472656 185.316406 158 C 183.242188 159.523438 181.253906 161.15625 179.355469 162.894531 L 149.972656 162.894531 C 149.15625 162.878906 148.339844 162.910156 147.527344 162.996094 C 147.175781 163.03125 146.828125 163.101562 146.488281 163.199219 C 146.148438 163.296875 145.820312 163.425781 145.503906 163.585938 C 145.183594 163.746094 144.886719 163.933594 144.601562 164.144531 C 144.320312 164.359375 144.058594 164.597656 143.820312 164.859375 C 143.578125 165.121094 143.367188 165.402344 143.179688 165.703125 C 142.988281 166.003906 142.832031 166.320312 142.699219 166.648438 C 142.570312 166.980469 142.46875 167.320312 142.402344 167.667969 C 142.332031 168.015625 142.296875 168.367188 142.292969 168.722656 C 142.289062 169.074219 142.316406 169.429688 142.378906 169.777344 C 142.4375 170.128906 142.527344 170.46875 142.652344 170.800781 C 142.773438 171.132812 142.925781 171.453125 143.105469 171.757812 C 143.289062 172.0625 143.496094 172.351562 143.726562 172.617188 C 143.960938 172.882812 144.214844 173.128906 144.496094 173.347656 C 144.773438 173.570312 145.066406 173.761719 145.378906 173.929688 C 145.695312 174.097656 146.019531 174.234375 146.359375 174.339844 C 146.695312 174.449219 147.042969 174.523438 147.394531 174.566406 C 148.058594 174.664062 148.722656 174.707031 149.394531 174.703125 L 168.9375 174.703125 C 165.242188 179.902344 162.28125 185.488281 160.054688 191.464844 C 157.828125 197.445312 156.414062 203.605469 155.808594 209.957031 L 149.902344 209.957031 C 149.074219 209.9375 148.25 209.972656 147.425781 210.058594 C 147.074219 210.097656 146.726562 210.171875 146.386719 210.273438 C 146.046875 210.378906 145.71875 210.511719 145.402344 210.675781 C 145.085938 210.839844 144.789062 211.03125 144.507812 211.25 C 144.226562 211.46875 143.96875 211.710938 143.734375 211.980469 C 143.5 212.246094 143.289062 212.53125 143.105469 212.835938 C 142.921875 213.140625 142.765625 213.457031 142.640625 213.792969 C 142.515625 214.125 142.421875 214.464844 142.359375 214.816406 C 142.296875 215.164062 142.265625 215.519531 142.269531 215.875 C 142.269531 216.230469 142.304688 216.582031 142.371094 216.933594 C 142.4375 217.28125 142.535156 217.621094 142.664062 217.953125 C 142.792969 218.285156 142.953125 218.601562 143.140625 218.902344 C 143.328125 219.207031 143.539062 219.488281 143.78125 219.753906 C 144.019531 220.015625 144.28125 220.253906 144.5625 220.46875 C 144.847656 220.6875 145.144531 220.875 145.464844 221.035156 C 145.78125 221.195312 146.109375 221.324219 146.453125 221.425781 C 146.792969 221.523438 147.140625 221.59375 147.496094 221.628906 C 147.96875 221.695312 148.441406 221.730469 148.921875 221.730469 L 155.570312 221.730469 C 155.925781 227.996094 157.058594 234.117188 158.972656 240.09375 C 160.886719 246.070312 163.519531 251.710938 166.871094 257.019531 L 149.566406 257.019531 C 149.394531 257.019531 149.191406 256.984375 148.988281 256.984375 C 147.996094 256.773438 147.09375 256.964844 146.273438 257.5625 L 145.796875 258.003906 C 144.242188 259.125 143.121094 260.585938 142.4375 262.378906 C 142.265625 262.976562 142.222656 263.582031 142.304688 264.195312 C 142.386719 264.808594 142.589844 265.378906 142.914062 265.910156 C 143.335938 266.574219 143.871094 267.128906 144.519531 267.574219 C 145.167969 268.023438 145.875 268.328125 146.648438 268.488281 C 147.722656 268.710938 148.808594 268.800781 149.902344 268.757812 L 176.199219 268.757812 C 177.902344 270.519531 179.6875 272.191406 181.554688 273.773438 C 183.421875 275.355469 185.367188 276.839844 187.382812 278.226562 C 189.402344 279.613281 191.484375 280.894531 193.628906 282.074219 C 195.773438 283.253906 197.972656 284.320312 200.226562 285.277344 C 202.480469 286.238281 204.773438 287.078125 207.113281 287.808594 C 209.449219 288.535156 211.816406 289.144531 214.214844 289.632812 C 216.617188 290.125 219.03125 290.496094 221.46875 290.742188 C 223.902344 290.992188 226.34375 291.117188 228.792969 291.121094 C 231.300781 291.121094 233.800781 290.984375 236.292969 290.710938 Z M 275.789062 258.917969 C 272.078125 263.140625 267.882812 266.800781 263.195312 269.902344 C 258.511719 273.003906 253.5 275.441406 248.167969 277.207031 C 244.300781 278.503906 240.34375 279.386719 236.292969 279.855469 C 234.75 280.085938 233.203125 280.234375 231.644531 280.296875 C 228.183594 280.480469 224.730469 280.371094 221.289062 279.964844 C 217.847656 279.558594 214.464844 278.867188 211.140625 277.882812 C 207.816406 276.898438 204.601562 275.644531 201.492188 274.113281 C 198.382812 272.578125 195.425781 270.796875 192.621094 268.757812 C 190.632812 267.34375 188.746094 265.804688 186.957031 264.144531 C 184.5625 261.925781 182.332031 259.550781 180.273438 257.019531 C 178.238281 254.519531 176.40625 251.882812 174.777344 249.105469 C 173.144531 246.328125 171.734375 243.445312 170.542969 240.453125 C 169.351562 237.460938 168.394531 234.394531 167.671875 231.257812 C 166.945312 228.117188 166.464844 224.941406 166.226562 221.730469 C 166.121094 220.746094 166.089844 219.730469 166.054688 218.746094 C 165.984375 215.804688 166.121094 212.875 166.460938 209.957031 C 166.84375 206.671875 167.484375 203.4375 168.386719 200.257812 C 169.289062 197.074219 170.441406 193.984375 171.84375 190.988281 C 173.242188 187.992188 174.875 185.128906 176.738281 182.398438 C 178.605469 179.664062 180.675781 177.101562 182.953125 174.703125 C 183.238281 174.347656 183.542969 174.007812 183.867188 173.683594 C 188 169.4375 192.640625 165.839844 197.78125 162.894531 C 202.5 160.183594 207.488281 158.125 212.746094 156.722656 C 218.003906 155.320312 223.351562 154.617188 228.792969 154.617188 C 231.304688 154.605469 233.804688 154.761719 236.292969 155.089844 C 239.339844 155.453125 242.34375 156.042969 245.300781 156.851562 C 248.261719 157.664062 251.144531 158.691406 253.949219 159.933594 C 256.757812 161.175781 259.457031 162.621094 262.046875 164.265625 C 264.636719 165.910156 267.089844 167.738281 269.410156 169.75 L 257.871094 180.84375 C 254.835938 178.539062 251.589844 176.582031 248.132812 174.972656 C 244.359375 173.195312 240.414062 171.972656 236.292969 171.308594 C 232.265625 170.65625 228.230469 170.5625 224.179688 171.039062 C 222.167969 171.226562 220.175781 171.542969 218.207031 171.988281 C 215.371094 172.609375 212.621094 173.503906 209.960938 174.667969 C 206.128906 176.347656 202.59375 178.515625 199.363281 181.171875 C 196.128906 183.828125 193.316406 186.875 190.925781 190.3125 C 188.824219 193.222656 187.085938 196.339844 185.707031 199.660156 C 184.332031 202.976562 183.359375 206.410156 182.78125 209.957031 C 182.121094 213.863281 181.984375 217.789062 182.375 221.730469 C 182.667969 224.589844 183.214844 227.398438 184.015625 230.15625 C 184.820312 232.914062 185.863281 235.578125 187.148438 238.144531 C 188.4375 240.710938 189.945312 243.144531 191.675781 245.4375 C 193.402344 247.730469 195.328125 249.851562 197.441406 251.792969 C 199.523438 253.757812 201.785156 255.488281 204.226562 256.984375 C 207.28125 258.921875 210.519531 260.46875 213.945312 261.628906 C 217.371094 262.785156 220.882812 263.523438 224.484375 263.839844 C 228.4375 264.242188 232.371094 264.117188 236.292969 263.464844 C 240.265625 262.847656 244.085938 261.722656 247.757812 260.089844 C 251.429688 258.453125 254.824219 256.367188 257.941406 253.828125 C 259.113281 252.882812 260.234375 251.882812 261.308594 250.824219 C 262.386719 249.769531 263.40625 248.667969 264.378906 247.511719 C 265.347656 246.359375 266.257812 245.164062 267.113281 243.921875 C 267.964844 242.679688 268.757812 241.402344 269.492188 240.085938 C 270.222656 238.769531 270.890625 237.417969 271.492188 236.039062 C 272.09375 234.65625 272.628906 233.25 273.09375 231.816406 C 273.5625 230.386719 273.960938 228.933594 274.289062 227.464844 C 274.613281 225.992188 274.871094 224.511719 275.058594 223.015625 C 275.242188 221.519531 275.355469 220.019531 275.398438 218.511719 C 275.4375 217.007812 275.40625 215.503906 275.304688 214 C 275.199219 212.496094 275.027344 211.003906 274.777344 209.515625 C 274.53125 208.03125 274.214844 206.558594 273.828125 205.101562 C 273.441406 203.648438 272.984375 202.214844 272.457031 200.800781 C 271.933594 199.390625 271.339844 198.007812 270.679688 196.652344 C 270.023438 195.296875 269.300781 193.976562 268.515625 192.6875 C 267.730469 191.402344 266.886719 190.160156 265.980469 188.953125 L 277.109375 177.722656 C 278.296875 179.136719 279.417969 180.601562 280.472656 182.117188 C 281.527344 183.628906 282.515625 185.1875 283.429688 186.792969 C 284.347656 188.394531 285.191406 190.035156 285.960938 191.710938 C 286.730469 193.390625 287.421875 195.097656 288.039062 196.839844 C 288.65625 198.578125 289.195312 200.339844 289.652344 202.128906 C 290.113281 203.917969 290.492188 205.722656 290.789062 207.542969 C 291.089844 209.367188 291.304688 211.195312 291.4375 213.039062 C 291.574219 214.878906 291.625 216.722656 291.597656 218.566406 C 291.566406 220.414062 291.453125 222.253906 291.257812 224.089844 C 291.0625 225.925781 290.789062 227.75 290.429688 229.558594 C 290.074219 231.371094 289.636719 233.160156 289.117188 234.933594 C 288.601562 236.707031 288.007812 238.453125 287.332031 240.167969 C 286.660156 241.886719 285.910156 243.574219 285.085938 245.226562 C 284.261719 246.878906 283.367188 248.488281 282.398438 250.0625 C 281.429688 251.632812 280.394531 253.160156 279.292969 254.636719 C 278.1875 256.117188 277.019531 257.542969 275.789062 258.917969 Z M 205.753906 244.804688 C 204.039062 243.355469 202.476562 241.757812 201.0625 240.015625 C 199.648438 238.269531 198.410156 236.410156 197.347656 234.433594 C 196.28125 232.453125 195.414062 230.394531 194.738281 228.253906 C 194.066406 226.113281 193.597656 223.925781 193.335938 221.695312 C 193.269531 221.085938 193.199219 220.476562 193.164062 219.832031 C 192.933594 216.503906 193.183594 213.210938 193.914062 209.957031 C 194.574219 206.832031 195.636719 203.847656 197.089844 201.003906 C 198.546875 198.164062 200.347656 195.558594 202.496094 193.195312 C 204.078125 191.46875 205.808594 189.910156 207.699219 188.527344 C 209.585938 187.144531 211.589844 185.957031 213.714844 184.96875 C 215.835938 183.984375 218.035156 183.214844 220.3125 182.660156 C 222.585938 182.109375 224.894531 181.785156 227.234375 181.691406 C 227.808594 181.660156 228.386719 181.660156 228.996094 181.660156 C 231.457031 181.640625 233.890625 181.902344 236.292969 182.4375 C 240.582031 183.289062 244.527344 184.953125 248.132812 187.425781 C 248.878906 187.9375 249.59375 188.480469 250.304688 189.054688 L 240.125 199.234375 C 238.894531 198.582031 237.617188 198.039062 236.292969 197.605469 C 233.75 196.664062 231.121094 196.207031 228.40625 196.230469 C 225.695312 196.253906 223.074219 196.757812 220.546875 197.742188 C 219.421875 198.222656 218.347656 198.792969 217.320312 199.457031 C 216.292969 200.121094 215.332031 200.871094 214.433594 201.699219 C 213.535156 202.527344 212.714844 203.429688 211.972656 204.402344 C 211.230469 205.371094 210.574219 206.398438 210.007812 207.484375 C 209.441406 208.566406 208.972656 209.691406 208.601562 210.855469 C 208.226562 212.019531 207.957031 213.207031 207.785156 214.417969 C 207.617188 215.628906 207.554688 216.847656 207.59375 218.066406 C 207.632812 219.289062 207.777344 220.5 208.027344 221.695312 C 208.730469 225.289062 210.28125 228.464844 212.675781 231.230469 C 213.382812 232.050781 214.148438 232.816406 214.972656 233.519531 C 215.792969 234.226562 216.664062 234.867188 217.585938 235.4375 C 218.503906 236.011719 219.460938 236.515625 220.457031 236.941406 C 221.453125 237.371094 222.472656 237.722656 223.523438 237.996094 C 224.570312 238.269531 225.632812 238.464844 226.710938 238.578125 C 227.789062 238.691406 228.871094 238.722656 229.953125 238.671875 C 231.035156 238.625 232.105469 238.492188 233.171875 238.28125 C 234.234375 238.066406 235.273438 237.777344 236.292969 237.40625 C 237.441406 236.996094 238.539062 236.476562 239.582031 235.847656 C 241.734375 234.394531 243.550781 232.597656 245.027344 230.460938 C 246.5 228.324219 247.539062 225.988281 248.132812 223.460938 C 248.886719 220.628906 249.136719 217.75 248.886719 214.832031 C 248.636719 211.910156 247.902344 209.121094 246.679688 206.457031 L 257.058594 196.167969 C 266.183594 206.210938 267.882812 226.46875 256.3125 240.210938 C 253.945312 243.019531 251.230469 245.441406 248.167969 247.472656 C 244.511719 249.84375 240.550781 251.496094 236.292969 252.425781 C 234.703125 252.796875 233.097656 253.042969 231.472656 253.171875 C 229.160156 253.367188 226.847656 253.328125 224.542969 253.0625 C 222.234375 252.792969 219.976562 252.296875 217.765625 251.578125 C 215.558594 250.859375 213.445312 249.929688 211.421875 248.785156 C 209.398438 247.644531 207.511719 246.3125 205.753906 244.789062 Z M 220.3125 211.210938 L 220.921875 210.398438 C 221.828125 209.3125 222.921875 208.472656 224.207031 207.878906 C 225.488281 207.285156 226.835938 206.996094 228.25 207.003906 C 229.167969 207.003906 230.074219 207.117188 230.964844 207.34375 L 225.570312 213.113281 C 225.398438 213.292969 225.175781 213.542969 224.933594 213.855469 C 224.933594 213.855469 224.636719 214.230469 224.417969 214.570312 C 224.003906 215.226562 223.738281 215.941406 223.621094 216.707031 C 223.503906 217.472656 223.542969 218.230469 223.738281 218.984375 C 224.042969 219.875 224.550781 220.632812 225.265625 221.257812 C 225.519531 221.503906 225.792969 221.730469 226.085938 221.933594 C 226.441406 222.171875 226.816406 222.363281 227.21875 222.507812 C 227.265625 222.523438 227.289062 222.550781 227.339844 222.570312 C 227.390625 222.585938 227.453125 222.570312 227.507812 222.597656 C 227.960938 222.738281 228.421875 222.816406 228.894531 222.832031 C 229.71875 222.761719 230.5 222.53125 231.234375 222.148438 C 231.96875 221.769531 232.601562 221.261719 233.136719 220.628906 C 234.222656 219.472656 235.273438 218.253906 236.292969 217.097656 C 236.597656 216.761719 236.867188 216.453125 237.140625 216.117188 L 238.566406 214.691406 C 238.863281 215.554688 239.039062 216.441406 239.089844 217.351562 C 239.140625 218.261719 239.0625 219.164062 238.863281 220.050781 C 238.664062 220.941406 238.34375 221.789062 237.90625 222.589844 C 237.46875 223.390625 236.929688 224.117188 236.292969 224.769531 C 235.910156 225.15625 235.5 225.519531 235.070312 225.855469 C 234.574219 226.21875 234.050781 226.535156 233.5 226.808594 C 232.949219 227.078125 232.378906 227.300781 231.789062 227.476562 C 231.199219 227.648438 230.601562 227.769531 229.992188 227.839844 C 229.378906 227.910156 228.769531 227.925781 228.15625 227.890625 C 227.542969 227.851562 226.933594 227.761719 226.335938 227.621094 C 225.738281 227.480469 225.160156 227.285156 224.59375 227.042969 C 224.03125 226.800781 223.492188 226.511719 222.976562 226.175781 C 222.460938 225.835938 221.980469 225.460938 221.53125 225.039062 C 220.511719 224.074219 219.734375 222.941406 219.191406 221.644531 C 218.839844 220.796875 218.597656 219.921875 218.464844 219.011719 C 218.332031 218.101562 218.316406 217.191406 218.414062 216.28125 C 218.511719 215.367188 218.722656 214.480469 219.042969 213.621094 C 219.363281 212.757812 219.785156 211.953125 220.3125 211.199219 Z M 297.0625 156.515625 C 295.945312 157.078125 294.761719 157.402344 293.515625 157.484375 C 292.265625 157.566406 291.050781 157.402344 289.871094 156.992188 C 288.476562 151.1875 288.988281 148.8125 291.703125 146.472656 L 293.261719 152.785156 L 299.742188 154.207031 C 299.015625 155.167969 298.121094 155.929688 297.0625 156.503906 Z M 82.824219 172.925781 C 82.414062 172.515625 82.074219 172.054688 81.800781 171.546875 C 81.527344 171.039062 81.335938 170.5 81.21875 169.933594 C 81.105469 169.367188 81.074219 168.796875 81.128906 168.222656 C 81.183594 167.644531 81.316406 167.089844 81.535156 166.554688 C 81.75 166.019531 82.042969 165.527344 82.402344 165.078125 C 82.765625 164.628906 83.183594 164.238281 83.660156 163.910156 C 84.136719 163.585938 84.652344 163.335938 85.203125 163.160156 C 85.753906 162.984375 86.316406 162.890625 86.894531 162.882812 C 87.722656 162.902344 88.519531 163.078125 89.28125 163.40625 C 90.042969 163.734375 90.71875 164.195312 91.304688 164.78125 C 93.679688 167.15625 95.953125 169.597656 98.328125 172.144531 L 100.433594 174.382812 L 117.703125 153.6875 C 118.484375 152.734375 119.265625 151.785156 120.113281 150.902344 C 120.351562 150.605469 120.613281 150.335938 120.90625 150.089844 C 121.195312 149.84375 121.507812 149.628906 121.84375 149.445312 C 122.175781 149.261719 122.523438 149.113281 122.886719 149 C 123.25 148.882812 123.621094 148.808594 124 148.765625 C 124.378906 148.726562 124.757812 148.722656 125.136719 148.753906 C 125.515625 148.789062 125.886719 148.859375 126.253906 148.96875 C 126.617188 149.074219 126.96875 149.21875 127.308594 149.394531 C 127.644531 149.574219 127.960938 149.78125 128.257812 150.019531 C 128.871094 150.5 129.371094 151.074219 129.761719 151.75 C 130.148438 152.425781 130.394531 153.152344 130.496094 153.921875 C 130.570312 154.75 130.484375 155.5625 130.238281 156.355469 C 129.992188 157.148438 129.601562 157.863281 129.070312 158.503906 C 126.355469 161.898438 123.539062 165.257812 120.757812 168.582031 L 114.003906 176.65625 C 111.359375 179.8125 108.710938 182.96875 106.132812 186.15625 C 105.59375 186.933594 104.917969 187.5625 104.105469 188.046875 C 103.296875 188.53125 102.421875 188.828125 101.484375 188.941406 C 101.382812 188.96875 101.28125 188.980469 101.179688 188.972656 C 100.394531 188.945312 99.644531 188.769531 98.925781 188.445312 C 98.210938 188.125 97.582031 187.675781 97.039062 187.109375 C 92.832031 183.105469 88.453125 178.726562 82.824219 172.925781 Z M 129.714844 204.628906 C 129.3125 205.378906 128.816406 206.058594 128.222656 206.664062 L 127.847656 207.105469 C 120.824219 215.554688 113.800781 223.980469 106.777344 232.386719 C 106.175781 233.335938 105.40625 234.121094 104.464844 234.734375 C 103.523438 235.351562 102.496094 235.746094 101.382812 235.914062 L 101.179688 235.914062 C 100.082031 235.792969 99.050781 235.464844 98.085938 234.929688 C 97.121094 234.394531 96.296875 233.691406 95.613281 232.828125 C 91.441406 228.6875 87.4375 224.683594 83.433594 220.644531 C 83.09375 220.386719 82.785156 220.097656 82.507812 219.773438 C 82.226562 219.449219 81.988281 219.097656 81.785156 218.722656 C 81.582031 218.347656 81.421875 217.953125 81.304688 217.542969 C 81.1875 217.132812 81.113281 216.714844 81.085938 216.289062 C 81.054688 215.863281 81.074219 215.4375 81.136719 215.015625 C 81.199219 214.59375 81.304688 214.183594 81.457031 213.785156 C 81.605469 213.386719 81.796875 213.007812 82.03125 212.648438 C 82.261719 212.289062 82.53125 211.960938 82.835938 211.660156 C 83.136719 211.359375 83.46875 211.09375 83.828125 210.863281 C 84.1875 210.636719 84.570312 210.445312 84.96875 210.300781 C 85.371094 210.152344 85.78125 210.046875 86.203125 209.988281 C 86.628906 209.929688 87.050781 209.914062 87.476562 209.949219 C 87.902344 209.980469 88.320312 210.054688 88.730469 210.179688 C 89.140625 210.300781 89.53125 210.464844 89.90625 210.667969 C 90.277344 210.875 90.628906 211.117188 90.949219 211.398438 C 91.269531 211.679688 91.558594 211.988281 91.8125 212.332031 C 94.019531 214.539062 96.191406 216.777344 98.5 219.117188 L 100.566406 221.289062 L 118.078125 200.320312 C 118.875 199.304688 119.734375 198.339844 120.65625 197.4375 C 120.902344 197.164062 121.175781 196.921875 121.472656 196.703125 C 121.769531 196.484375 122.085938 196.296875 122.417969 196.144531 C 122.753906 195.988281 123.097656 195.867188 123.457031 195.78125 C 123.8125 195.695312 124.175781 195.644531 124.542969 195.632812 C 124.914062 195.617188 125.277344 195.640625 125.640625 195.699219 C 126.003906 195.753906 126.359375 195.847656 126.703125 195.976562 C 127.046875 196.105469 127.375 196.269531 127.691406 196.460938 C 128.003906 196.65625 128.292969 196.878906 128.5625 197.132812 C 128.832031 197.351562 129.078125 197.59375 129.304688 197.855469 C 129.527344 198.121094 129.726562 198.40625 129.898438 198.707031 C 130.074219 199.007812 130.21875 199.324219 130.332031 199.652344 C 130.445312 199.980469 130.53125 200.316406 130.582031 200.65625 C 130.636719 201 130.65625 201.347656 130.644531 201.695312 C 130.636719 202.042969 130.59375 202.386719 130.519531 202.726562 C 130.445312 203.0625 130.339844 203.394531 130.203125 203.714844 C 130.070312 204.035156 129.90625 204.339844 129.714844 204.628906 Z M 128.492188 244.328125 C 131.175781 246.671875 131.105469 250.199219 128.359375 253.558594 C 126.492188 255.832031 124.625 258.070312 122.757812 260.277344 L 116.144531 268.25 C 112.917969 272.085938 109.695312 275.941406 106.472656 279.820312 C 105.886719 280.679688 105.148438 281.382812 104.261719 281.925781 C 103.375 282.472656 102.414062 282.808594 101.382812 282.941406 C 101.304688 282.96875 101.226562 282.980469 101.144531 282.976562 C 100.183594 282.894531 99.273438 282.632812 98.417969 282.195312 C 97.558594 281.753906 96.816406 281.164062 96.191406 280.429688 C 91.882812 276.15625 87.574219 271.882812 83.332031 267.570312 C 82.644531 266.921875 82.109375 266.164062 81.726562 265.300781 C 81.34375 264.433594 81.144531 263.53125 81.125 262.582031 C 81.152344 261.8125 81.324219 261.078125 81.648438 260.375 C 81.972656 259.675781 82.421875 259.066406 82.992188 258.546875 C 83.296875 258.273438 83.625 258.03125 83.976562 257.828125 C 84.332031 257.621094 84.699219 257.449219 85.089844 257.320312 C 85.476562 257.1875 85.871094 257.097656 86.277344 257.046875 C 86.683594 256.996094 87.089844 256.984375 87.496094 257.015625 C 87.90625 257.046875 88.304688 257.121094 88.699219 257.234375 C 89.089844 257.347656 89.46875 257.5 89.832031 257.6875 C 90.195312 257.878906 90.535156 258.101562 90.851562 258.359375 C 91.167969 258.621094 91.453125 258.90625 91.710938 259.226562 C 93.984375 261.5 96.191406 263.804688 98.5 266.214844 L 100.566406 268.386719 L 118.007812 247.449219 C 118.382812 246.976562 118.789062 246.5 119.195312 246.027344 C 119.824219 245.164062 120.597656 244.457031 121.507812 243.90625 C 122.417969 243.351562 123.402344 242.996094 124.457031 242.835938 C 125.203125 242.800781 125.925781 242.910156 126.628906 243.167969 C 127.328125 243.429688 127.949219 243.816406 128.492188 244.328125 Z M 128.492188 244.328125 " fill-opacity="1" fill-rule="nonzero"/></g></svg>