<svg xmlns="http://www.w3.org/2000/svg" xmlns:xlink="http://www.w3.org/1999/xlink" width="500" zoomAndPan="magnify" viewBox="0 0 375 374.999991" height="500" preserveAspectRatio="xMidYMid meet" version="1.0"><defs><clipPath id="2faedd26cb"><path d="M 45 50.433594 L 329.992188 50.433594 L 329.992188 324.933594 L 45 324.933594 Z M 45 50.433594 " clip-rule="nonzero"/></clipPath></defs><g clip-path="url(#2faedd26cb)"><path fill="#0049a7" d="M 86.605469 93.628906 C 85.699219 94.539062 85.128906 95.792969 85.128906 97.167969 C 85.128906 98.46875 85.625 99.652344 86.429688 100.546875 L 86.605469 100.710938 C 87.515625 101.617188 88.777344 102.1875 90.148438 102.1875 L 95.667969 102.1875 C 99.5625 102.1875 103.097656 103.777344 105.660156 106.339844 C 108.222656 108.898438 109.808594 112.433594 109.808594 116.328125 C 109.808594 120.226562 108.222656 123.757812 105.660156 126.320312 C 103.5 128.476562 100.628906 129.882812 97.449219 130.292969 L 97.449219 133.941406 C 97.449219 136.453125 95.414062 138.484375 92.90625 138.484375 C 90.394531 138.484375 88.367188 136.445312 88.367188 133.941406 L 88.367188 130.292969 C 85.1875 129.890625 82.3125 128.484375 80.15625 126.320312 L 79.878906 126.015625 C 77.488281 123.480469 76.003906 120.070312 76.003906 116.328125 C 76.003906 113.808594 78.046875 111.765625 80.566406 111.765625 C 83.085938 111.765625 85.128906 113.808594 85.128906 116.328125 C 85.128906 117.628906 85.625 118.8125 86.429688 119.707031 L 86.605469 119.871094 C 87.515625 120.777344 88.777344 121.347656 90.148438 121.347656 L 95.667969 121.347656 C 97.042969 121.347656 98.300781 120.777344 99.207031 119.871094 C 100.117188 118.960938 100.683594 117.699219 100.683594 116.328125 C 100.683594 114.953125 100.117188 113.695312 99.207031 112.789062 C 98.300781 111.878906 97.039062 111.3125 95.667969 111.3125 L 90.148438 111.3125 C 86.25 111.3125 82.71875 109.722656 80.15625 107.160156 L 79.878906 106.855469 C 77.488281 104.324219 76.003906 100.910156 76.003906 97.167969 C 76.003906 93.273438 77.59375 89.738281 80.15625 87.179688 C 82.3125 85.019531 85.195312 83.617188 88.367188 83.203125 L 88.367188 79.558594 C 88.367188 77.046875 90.402344 75.015625 92.90625 75.015625 C 95.414062 75.015625 97.449219 77.050781 97.449219 79.558594 L 97.449219 83.203125 C 100.628906 83.609375 103.5 85.015625 105.660156 87.179688 C 108.222656 89.738281 109.808594 93.273438 109.808594 97.167969 C 109.808594 99.6875 107.765625 101.734375 105.246094 101.734375 C 102.726562 101.734375 100.683594 99.6875 100.683594 97.167969 C 100.683594 95.792969 100.117188 94.539062 99.207031 93.628906 C 98.300781 92.71875 97.039062 92.152344 95.667969 92.152344 L 90.148438 92.152344 C 88.769531 92.152344 87.515625 92.71875 86.605469 93.628906 Z M 129.699219 163.078125 L 238.839844 163.078125 C 241.359375 163.078125 243.402344 161.035156 243.402344 158.515625 C 243.402344 155.996094 241.359375 153.953125 238.839844 153.953125 L 129.699219 153.953125 C 127.183594 153.953125 125.136719 155.996094 125.136719 158.515625 C 125.136719 161.042969 127.183594 163.078125 129.699219 163.078125 Z M 201.933594 269.578125 L 129.699219 269.578125 C 127.183594 269.578125 125.136719 271.621094 125.136719 274.140625 C 125.136719 276.660156 127.183594 278.703125 129.699219 278.703125 L 201.933594 278.703125 C 204.453125 278.703125 206.496094 276.660156 206.496094 274.140625 C 206.496094 271.621094 204.453125 269.578125 201.933594 269.578125 Z M 129.699219 191.988281 L 238.839844 191.988281 C 241.359375 191.988281 243.402344 189.945312 243.402344 187.425781 C 243.402344 184.90625 241.359375 182.863281 238.839844 182.863281 L 129.699219 182.863281 C 127.183594 182.863281 125.136719 184.90625 125.136719 187.425781 C 125.136719 189.945312 127.183594 191.988281 129.699219 191.988281 Z M 201.933594 240.675781 L 129.699219 240.675781 C 127.183594 240.675781 125.136719 242.71875 125.136719 245.238281 C 125.136719 247.757812 127.183594 249.800781 129.699219 249.800781 L 201.933594 249.800781 C 204.453125 249.800781 206.496094 247.757812 206.496094 245.238281 C 206.496094 242.71875 204.453125 240.675781 201.933594 240.675781 Z M 129.699219 91.875 L 165.378906 91.875 C 167.898438 91.875 169.941406 89.832031 169.941406 87.3125 C 169.941406 84.792969 167.898438 82.75 165.378906 82.75 L 129.699219 82.75 C 127.183594 82.75 125.136719 84.792969 125.136719 87.3125 C 125.136719 89.832031 127.183594 91.875 129.699219 91.875 Z M 328.585938 127.429688 L 320.417969 143.039062 C 320.417969 143.039062 320.417969 143.046875 320.417969 143.046875 C 320.417969 143.046875 320.417969 143.046875 320.410156 143.054688 L 268.402344 242.414062 C 268.410156 242.519531 268.464844 242.613281 268.464844 242.726562 L 268.464844 320.011719 C 268.464844 322.53125 266.421875 324.574219 263.902344 324.574219 L 49.820312 324.574219 C 47.300781 324.574219 45.257812 322.53125 45.257812 320.011719 L 45.257812 54.996094 C 45.257812 52.476562 47.300781 50.433594 49.820312 50.433594 L 199.464844 50.433594 C 200.882812 50.433594 202.152344 51.085938 202.988281 52.101562 L 267.183594 119.132812 C 267.613281 119.578125 267.925781 120.089844 268.140625 120.636719 C 268.210938 120.8125 268.195312 121 268.246094 121.183594 C 268.339844 121.546875 268.453125 121.914062 268.453125 122.28125 L 268.460938 169.160156 L 298.53125 111.703125 C 299.695312 109.480469 302.441406 108.617188 304.664062 109.78125 L 326.664062 121.296875 C 328.882812 122.460938 329.75 125.199219 328.585938 127.429688 Z M 204.027344 117.726562 L 253.230469 117.726562 L 204.027344 66.34375 Z M 259.339844 251.417969 L 242.410156 264.632812 C 241.550781 265.378906 240.410156 265.804688 239.1875 265.730469 C 236.675781 265.597656 234.757812 263.445312 234.894531 260.933594 L 236.582031 230.945312 C 236.582031 230.917969 236.605469 230.898438 236.605469 230.867188 C 236.648438 230.285156 236.804688 229.710938 237.082031 229.160156 C 237.09375 229.136719 237.085938 229.109375 237.101562 229.085938 L 242.148438 219.449219 C 241.316406 220.324219 240.160156 220.882812 238.855469 220.882812 L 129.699219 220.882812 C 127.183594 220.882812 125.136719 218.839844 125.136719 216.320312 C 125.136719 213.800781 127.183594 211.757812 129.699219 211.757812 L 238.839844 211.757812 C 241.359375 211.757812 243.402344 213.800781 243.402344 216.320312 C 243.402344 216.726562 243.269531 217.089844 243.175781 217.464844 L 259.339844 186.582031 L 259.339844 126.832031 L 199.46875 126.847656 C 196.953125 126.847656 194.90625 124.800781 194.90625 122.28125 L 194.90625 59.554688 L 54.382812 59.554688 L 54.382812 315.433594 L 259.339844 315.433594 Z M 244.539062 251.441406 L 254.757812 243.472656 L 245.261719 238.503906 Z M 310.253906 142.855469 L 296.304688 135.554688 L 268.113281 189.421875 C 268.097656 189.449219 268.082031 189.46875 268.078125 189.492188 L 247.25 229.277344 L 254.671875 233.167969 L 261.199219 236.582031 Z M 318.429688 127.242188 L 304.480469 119.941406 L 300.519531 127.507812 L 314.472656 134.808594 Z M 108.859375 251.015625 L 108.859375 274.140625 C 108.859375 276.660156 106.816406 278.703125 104.296875 278.703125 L 80.566406 278.703125 C 78.046875 278.703125 76.003906 276.660156 76.003906 274.140625 L 76.003906 251.015625 C 76.003906 248.496094 78.046875 246.453125 80.566406 246.453125 L 104.296875 246.453125 C 106.816406 246.453125 108.859375 248.496094 108.859375 251.015625 Z M 99.734375 255.578125 L 85.128906 255.578125 L 85.128906 269.578125 L 99.742188 269.578125 L 99.742188 255.578125 Z M 108.859375 204.769531 L 108.859375 227.894531 C 108.859375 230.414062 106.816406 232.457031 104.296875 232.457031 L 80.566406 232.457031 C 78.046875 232.457031 76.003906 230.414062 76.003906 227.894531 L 76.003906 204.769531 C 76.003906 202.25 78.046875 200.207031 80.566406 200.207031 L 104.296875 200.207031 C 106.816406 200.207031 108.859375 202.25 108.859375 204.769531 Z M 99.734375 209.332031 L 85.128906 209.332031 L 85.128906 223.332031 L 99.742188 223.332031 L 99.742188 209.332031 Z M 108.859375 158.515625 L 108.859375 181.644531 C 108.859375 184.160156 106.816406 186.207031 104.296875 186.207031 L 80.566406 186.207031 C 78.046875 186.207031 76.003906 184.160156 76.003906 181.644531 L 76.003906 158.515625 C 76.003906 155.996094 78.046875 153.953125 80.566406 153.953125 L 104.296875 153.953125 C 106.816406 153.953125 108.859375 155.996094 108.859375 158.515625 Z M 99.734375 163.078125 L 85.128906 163.078125 L 85.128906 177.078125 L 99.742188 177.078125 L 99.742188 163.078125 Z M 129.699219 107.089844 L 165.378906 107.089844 C 167.898438 107.089844 169.941406 105.046875 169.941406 102.527344 C 169.941406 100.007812 167.898438 97.964844 165.378906 97.964844 L 129.699219 97.964844 C 127.183594 97.964844 125.136719 100.007812 125.136719 102.527344 C 125.136719 105.046875 127.183594 107.089844 129.699219 107.089844 Z M 129.699219 122.304688 L 165.378906 122.304688 C 167.898438 122.304688 169.941406 120.261719 169.941406 117.742188 C 169.941406 115.222656 167.898438 113.179688 165.378906 113.179688 L 129.699219 113.179688 C 127.183594 113.179688 125.136719 115.222656 125.136719 117.742188 C 125.136719 120.261719 127.183594 122.304688 129.699219 122.304688 Z M 129.699219 122.304688 " fill-opacity="1" fill-rule="nonzero"/></g></svg>